{"glyphs":{"0":{"ha":1061,"x_min":0,"x_max":0,"o":"m 533 -22 b 47 547 237 -22 47 203 b 533 1116 47 890 237 1116 b 1014 547 827 1116 1014 890 b 533 -22 1014 203 827 -22 m 531 254 b 723 546 649 254 723 371 b 530 841 723 723 649 841 b 337 547 412 841 337 724 b 531 254 337 372 412 254 "},"1":{"ha":539,"x_min":0,"x_max":0,"o":"m 444 1100 l 444 0 l 154 0 l 154 758 l 47 732 l 47 1018 l 359 1100 "},"2":{"ha":972,"x_min":0,"x_max":0,"o":"m 924 267 l 924 0 l 47 0 l 47 105 b 620 706 463 453 620 604 b 490 842 620 779 563 842 b 309 664 394 842 309 762 l 73 742 b 491 1116 73 940 258 1116 b 911 718 724 1116 911 932 b 578 267 911 538 758 366 "},"3":{"ha":889,"x_min":0,"x_max":0,"o":"m 656 623 b 842 337 762 579 842 474 b 445 -17 842 128 659 -17 b 47 291 240 -17 73 126 l 289 349 b 429 254 309 286 372 254 b 548 374 500 254 548 304 b 300 541 548 460 466 540 l 333 670 b 499 787 437 670 499 724 b 419 870 499 836 465 870 b 328 799 380 870 345 845 l 87 852 b 439 1128 125 1010 256 1128 b 781 834 630 1128 781 1002 b 656 623 781 743 734 659 "},"4":{"ha":1021,"x_min":0,"x_max":0,"o":"m 993 191 l 886 191 l 886 0 l 597 0 l 597 191 l 14 191 l 383 1099 l 676 1098 l 419 450 l 597 450 l 597 689 l 886 689 l 886 450 l 993 450 "},"5":{"ha":932,"x_min":0,"x_max":0,"o":"m 521 749 b 884 377 739 749 884 587 b 456 -17 884 140 699 -17 b 47 228 292 -17 134 58 l 284 332 b 437 250 328 277 376 250 b 583 385 515 250 583 294 b 431 513 583 471 518 513 b 232 444 361 513 275 488 l 101 515 l 186 1094 l 785 1094 l 785 835 l 390 835 l 372 716 b 521 749 412 737 464 749 "},"6":{"ha":922,"x_min":0,"x_max":0,"o":"m 535 699 b 874 360 713 699 874 555 b 458 -21 874 157 699 -21 b 47 356 237 -21 47 103 b 406 1093 47 450 74 551 l 737 1092 l 496 696 b 535 699 509 698 522 699 m 462 245 b 587 369 530 245 587 297 b 463 496 587 441 530 496 b 339 368 395 495 339 442 b 462 245 339 296 394 245 "},"7":{"ha":846,"x_min":0,"x_max":0,"o":"m 832 1093 l 832 1043 l 416 0 l 112 0 l 427 827 l 28 827 l 28 1093 "},"8":{"ha":932,"x_min":0,"x_max":0,"o":"m 466 -22 b 47 332 218 -22 47 127 b 252 618 47 508 176 603 b 110 824 193 630 110 706 b 467 1116 110 982 260 1116 b 825 825 677 1116 825 979 b 677 618 825 702 728 632 b 885 330 747 602 885 513 b 466 -22 885 130 718 -22 m 467 696 b 564 789 517 696 564 732 b 467 880 564 848 518 880 b 372 790 417 880 372 847 b 467 696 372 735 415 696 m 466 239 b 602 366 536 239 602 290 b 467 496 602 442 536 496 b 332 364 396 496 332 440 b 466 239 332 288 397 239 "},"9":{"ha":922,"x_min":0,"x_max":0,"o":"m 461 1118 b 874 726 696 1118 874 941 b 517 1 874 600 848 562 l 184 1 l 412 379 b 388 378 404 378 396 378 b 47 729 205 378 47 545 b 461 1118 47 942 228 1118 m 460 601 b 584 724 527 601 584 655 b 460 852 584 800 527 852 b 337 724 392 852 337 800 b 460 601 337 656 393 601 "}," ":{"ha":424,"x_min":0,"x_max":0,"o":""},"A":{"ha":1183,"x_min":0,"x_max":0,"o":"m 795 127 l 387 127 l 332 0 l 14 0 l 522 1107 l 660 1107 l 1168 0 l 850 0 m 703 340 l 591 599 l 479 340 "},"Á":{"ha":1183,"x_min":0,"x_max":0,"o":"m 659 1183 l 477 1183 l 593 1412 l 821 1412 m 795 127 l 387 127 l 332 0 l 14 0 l 522 1107 l 660 1107 l 1168 0 l 850 0 m 703 340 l 591 599 l 479 340 "},"Ă":{"ha":1183,"x_min":0,"x_max":0,"o":"m 591 1189 b 373 1393 467 1189 373 1277 l 503 1393 b 591 1302 503 1341 541 1302 b 680 1393 642 1302 680 1341 l 810 1393 b 591 1189 810 1277 716 1189 m 795 127 l 387 127 l 332 0 l 14 0 l 522 1107 l 660 1107 l 1168 0 l 850 0 m 703 340 l 591 599 l 479 340 "},"Â":{"ha":1183,"x_min":0,"x_max":0,"o":"m 505 1193 l 298 1193 l 509 1392 l 671 1392 l 885 1193 l 677 1193 l 591 1281 m 795 127 l 387 127 l 332 0 l 14 0 l 522 1107 l 660 1107 l 1168 0 l 850 0 m 703 340 l 591 599 l 479 340 "},"Ä":{"ha":1183,"x_min":0,"x_max":0,"o":"m 429 1194 b 328 1287 374 1194 328 1236 b 429 1381 328 1337 374 1381 b 528 1287 482 1381 528 1337 b 429 1194 528 1236 482 1194 m 755 1194 b 656 1287 701 1194 656 1236 b 755 1381 656 1337 701 1381 b 855 1287 810 1381 855 1337 b 755 1194 855 1236 810 1194 m 795 127 l 387 127 l 332 0 l 14 0 l 522 1107 l 660 1107 l 1168 0 l 850 0 m 703 340 l 591 599 l 479 340 "},"À":{"ha":1183,"x_min":0,"x_max":0,"o":"m 581 1183 l 420 1412 l 647 1412 l 764 1183 m 795 127 l 387 127 l 332 0 l 14 0 l 522 1107 l 660 1107 l 1168 0 l 850 0 m 703 340 l 591 599 l 479 340 "},"Ā":{"ha":1183,"x_min":0,"x_max":0,"o":"m 814 1221 l 370 1221 l 370 1358 l 814 1358 m 795 127 l 387 127 l 332 0 l 14 0 l 522 1107 l 660 1107 l 1168 0 l 850 0 m 703 340 l 591 599 l 479 340 "},"Ą":{"ha":1183,"x_min":0,"x_max":0,"o":"m 1034 -201 b 1114 -189 1048 -201 1079 -197 l 1141 -372 b 1010 -387 1093 -382 1049 -387 b 792 -218 868 -387 792 -323 b 937 0 792 -123 854 -43 l 850 0 l 795 127 l 387 127 l 332 0 l 14 0 l 522 1107 l 660 1107 l 1168 0 l 1128 0 b 994 -157 1034 -69 994 -111 b 1034 -201 994 -180 1006 -201 m 703 340 l 591 599 l 479 340 "},"Å":{"ha":1183,"x_min":0,"x_max":0,"o":"m 592 1158 b 427 1316 502 1158 427 1229 b 592 1475 427 1403 502 1475 b 755 1316 681 1475 755 1402 b 592 1158 755 1230 681 1158 m 592 1374 b 531 1315 558 1374 531 1348 b 592 1257 531 1283 558 1257 b 652 1315 625 1257 652 1283 b 592 1374 652 1348 625 1374 m 795 127 l 387 127 l 332 0 l 14 0 l 522 1107 l 660 1107 l 1168 0 l 850 0 m 703 340 l 591 599 l 479 340 "},"Ã":{"ha":1183,"x_min":0,"x_max":0,"o":"m 486 1284 b 419 1200 448 1284 430 1246 l 287 1240 b 485 1422 315 1382 408 1422 b 697 1335 598 1422 637 1335 b 764 1419 734 1335 753 1372 l 896 1378 b 698 1196 867 1233 771 1196 b 486 1284 584 1196 547 1284 m 795 127 l 387 127 l 332 0 l 14 0 l 522 1107 l 660 1107 l 1168 0 l 850 0 m 703 340 l 591 599 l 479 340 "},"Æ":{"ha":1492,"x_min":0,"x_max":0,"o":"m 1004 823 l 1004 671 l 1351 671 l 1351 429 l 1004 429 l 1004 272 l 1426 272 l 1426 0 l 717 0 l 717 157 l 404 157 l 328 0 l 14 0 l 544 1093 l 1426 1093 l 1426 823 m 717 399 l 717 801 l 522 399 "},"B":{"ha":954,"x_min":0,"x_max":0,"o":"m 678 616 b 926 334 795 616 926 498 b 562 0 926 161 781 0 l 95 0 l 95 1093 l 454 1093 b 798 809 652 1093 798 960 b 678 616 798 696 723 616 m 554 757 b 446 841 554 810 508 841 l 374 841 l 374 669 l 444 669 b 554 757 507 669 554 701 m 517 264 b 648 368 584 264 648 296 b 519 471 648 432 602 471 l 374 471 l 374 264 l 517 264 "},"C":{"ha":1082,"x_min":0,"x_max":0,"o":"m 644 -24 b 47 547 336 -24 47 203 b 650 1119 47 870 309 1119 b 1054 954 791 1117 942 1055 l 887 739 b 650 840 820 800 731 840 b 342 545 482 840 342 712 b 644 250 342 375 488 250 b 888 357 736 250 818 294 l 1054 136 b 644 -24 949 41 810 -24 "},"Ć":{"ha":1082,"x_min":0,"x_max":0,"o":"m 479 1181 l 595 1410 l 823 1410 l 661 1181 m 644 -24 b 47 547 336 -24 47 203 b 650 1119 47 870 309 1119 b 1054 954 791 1117 942 1055 l 887 739 b 650 840 820 800 731 840 b 342 545 482 840 342 712 b 644 250 342 375 488 250 b 888 357 736 250 818 294 l 1054 136 b 644 -24 949 41 810 -24 "},"Č":{"ha":1082,"x_min":0,"x_max":0,"o":"m 506 1390 l 592 1301 l 678 1390 l 886 1390 l 673 1191 l 511 1191 l 300 1390 m 644 -24 b 47 547 336 -24 47 203 b 650 1119 47 870 309 1119 b 1054 954 791 1117 942 1055 l 887 739 b 650 840 820 800 731 840 b 342 545 482 840 342 712 b 644 250 342 375 488 250 b 888 357 736 250 818 294 l 1054 136 b 644 -24 949 41 810 -24 "},"Ç":{"ha":1082,"x_min":0,"x_max":0,"o":"m 1054 136 b 671 -24 956 47 826 -17 l 642 -59 b 659 -58 648 -59 652 -58 b 767 -174 720 -58 767 -109 b 467 -389 767 -286 631 -391 l 400 -233 b 581 -180 532 -233 581 -210 b 538 -149 581 -169 574 -149 b 505 -154 529 -149 518 -151 l 473 -113 l 550 -17 b 47 547 279 24 47 239 b 650 1119 47 870 309 1119 b 1054 954 791 1117 942 1055 l 887 739 b 650 840 820 800 731 840 b 342 545 482 840 342 712 b 644 250 342 375 488 250 b 888 357 736 250 818 294 l 1054 136 "},"Ċ":{"ha":1082,"x_min":0,"x_max":0,"o":"m 593 1191 b 479 1297 530 1191 479 1239 b 593 1407 479 1356 530 1407 b 709 1298 656 1407 709 1356 b 593 1191 709 1238 656 1191 m 644 -24 b 47 547 336 -24 47 203 b 650 1119 47 870 309 1119 b 1054 954 791 1117 942 1055 l 887 739 b 650 840 820 800 731 840 b 342 545 482 840 342 712 b 644 250 342 375 488 250 b 888 357 736 250 818 294 l 1054 136 b 644 -24 949 41 810 -24 "},"D":{"ha":1098,"x_min":0,"x_max":0,"o":"m 452 1093 b 1050 545 823 1095 1050 887 b 452 0 1050 206 823 0 l 95 0 l 95 1093 l 452 1093 m 447 273 b 760 546 641 273 760 376 b 444 822 760 718 640 822 l 378 822 l 378 273 l 447 273 "},"Ð":{"ha":1151,"x_min":0,"x_max":0,"o":"m 505 1093 b 1103 545 877 1095 1103 887 b 505 0 1103 206 877 0 l 149 0 l 149 454 l 28 454 l 28 630 l 149 630 l 149 1093 l 505 1093 m 500 273 b 812 546 694 273 812 376 b 498 822 812 718 694 822 l 431 822 l 431 629 l 577 629 l 577 454 l 431 454 l 431 273 l 500 273 "},"Ď":{"ha":1098,"x_min":0,"x_max":0,"o":"m 475 1193 l 264 1392 l 470 1392 l 556 1303 l 642 1392 l 850 1392 l 637 1193 m 452 1093 b 1050 545 823 1095 1050 887 b 452 0 1050 206 823 0 l 95 0 l 95 1093 l 452 1093 m 447 273 b 760 546 641 273 760 376 b 444 822 760 718 640 822 l 378 822 l 378 273 l 447 273 "},"Đ":{"ha":1151,"x_min":0,"x_max":0,"o":"m 505 1093 b 1103 545 877 1095 1103 887 b 505 0 1103 206 877 0 l 149 0 l 149 454 l 28 454 l 28 630 l 149 630 l 149 1093 l 505 1093 m 500 273 b 812 546 694 273 812 376 b 498 822 812 718 694 822 l 431 822 l 431 629 l 577 629 l 577 454 l 431 454 l 431 273 l 500 273 "},"E":{"ha":870,"x_min":0,"x_max":0,"o":"m 382 823 l 382 671 l 729 671 l 729 429 l 382 429 l 382 272 l 804 272 l 804 0 l 95 0 l 95 1093 l 804 1093 l 804 823 "},"É":{"ha":870,"x_min":0,"x_max":0,"o":"m 500 1183 l 317 1183 l 434 1412 l 661 1412 m 382 823 l 382 671 l 729 671 l 729 429 l 382 429 l 382 272 l 804 272 l 804 0 l 95 0 l 95 1093 l 804 1093 l 804 823 "},"Ĕ":{"ha":870,"x_min":0,"x_max":0,"o":"m 432 1189 b 214 1393 307 1189 214 1277 l 344 1393 b 432 1302 344 1341 382 1302 b 521 1393 482 1302 521 1341 l 651 1393 b 432 1189 651 1277 557 1189 m 382 823 l 382 671 l 729 671 l 729 429 l 382 429 l 382 272 l 804 272 l 804 0 l 95 0 l 95 1093 l 804 1093 l 804 823 "},"Ě":{"ha":870,"x_min":0,"x_max":0,"o":"m 349 1193 l 138 1392 l 345 1392 l 431 1303 l 517 1392 l 725 1392 l 511 1193 m 382 823 l 382 671 l 729 671 l 729 429 l 382 429 l 382 272 l 804 272 l 804 0 l 95 0 l 95 1093 l 804 1093 l 804 823 "},"Ê":{"ha":870,"x_min":0,"x_max":0,"o":"m 345 1193 l 139 1193 l 350 1392 l 512 1392 l 726 1193 l 517 1193 l 431 1281 m 382 823 l 382 671 l 729 671 l 729 429 l 382 429 l 382 272 l 804 272 l 804 0 l 95 0 l 95 1093 l 804 1093 l 804 823 "},"Ë":{"ha":870,"x_min":0,"x_max":0,"o":"m 269 1194 b 169 1287 214 1194 169 1236 b 269 1381 169 1337 214 1381 b 368 1287 323 1381 368 1337 b 269 1194 368 1236 323 1194 m 595 1194 b 496 1287 541 1194 496 1236 b 595 1381 496 1337 542 1381 b 696 1287 650 1381 696 1337 b 595 1194 696 1236 650 1194 m 382 823 l 382 671 l 729 671 l 729 429 l 382 429 l 382 272 l 804 272 l 804 0 l 95 0 l 95 1093 l 804 1093 l 804 823 "},"Ė":{"ha":870,"x_min":0,"x_max":0,"o":"m 432 1193 b 317 1299 368 1193 317 1241 b 432 1409 317 1358 369 1409 b 547 1300 495 1409 547 1358 b 432 1193 547 1240 494 1193 m 382 823 l 382 671 l 729 671 l 729 429 l 382 429 l 382 272 l 804 272 l 804 0 l 95 0 l 95 1093 l 804 1093 l 804 823 "},"È":{"ha":870,"x_min":0,"x_max":0,"o":"m 422 1183 l 260 1412 l 488 1412 l 604 1183 m 382 823 l 382 671 l 729 671 l 729 429 l 382 429 l 382 272 l 804 272 l 804 0 l 95 0 l 95 1093 l 804 1093 l 804 823 "},"Ē":{"ha":870,"x_min":0,"x_max":0,"o":"m 654 1221 l 210 1221 l 210 1358 l 654 1358 m 382 823 l 382 671 l 729 671 l 729 429 l 382 429 l 382 272 l 804 272 l 804 0 l 95 0 l 95 1093 l 804 1093 l 804 823 "},"Ę":{"ha":870,"x_min":0,"x_max":0,"o":"m 382 823 l 382 671 l 729 671 l 729 429 l 382 429 l 382 272 l 804 272 l 804 0 l 786 0 b 657 -154 696 -67 657 -108 b 696 -198 657 -177 669 -198 b 777 -185 711 -198 742 -194 l 804 -368 b 673 -383 755 -378 712 -383 b 455 -214 531 -383 455 -320 b 593 0 455 -122 514 -43 l 95 0 l 95 1093 l 804 1093 l 804 823 "},"F":{"ha":832,"x_min":0,"x_max":0,"o":"m 382 823 l 382 646 l 729 646 l 729 404 l 382 404 l 382 -1 l 95 -1 l 95 1096 l 804 1096 l 804 823 "},"G":{"ha":1266,"x_min":0,"x_max":0,"o":"m 1210 628 b 1219 522 1215 591 1219 556 b 657 -26 1219 189 968 -26 b 47 545 310 -26 47 233 b 650 1120 47 857 311 1120 b 1040 975 789 1118 949 1059 l 879 755 b 650 848 818 812 730 848 b 344 546 487 848 344 715 b 669 243 344 393 467 243 b 899 412 801 243 895 307 l 649 412 l 649 628 l 1210 628 "},"Ğ":{"ha":1266,"x_min":0,"x_max":0,"o":"m 650 1189 b 431 1393 525 1189 431 1277 l 562 1393 b 650 1302 562 1341 600 1302 b 739 1393 700 1302 739 1341 l 869 1393 b 650 1189 869 1277 774 1189 m 1210 628 b 1219 522 1215 591 1219 556 b 657 -26 1219 189 968 -26 b 47 545 310 -26 47 233 b 650 1120 47 857 311 1120 b 1040 975 789 1118 949 1059 l 879 755 b 650 848 818 812 730 848 b 344 546 487 848 344 715 b 669 243 344 393 467 243 b 899 412 801 243 895 307 l 649 412 l 649 628 l 1210 628 "},"Ģ":{"ha":1266,"x_min":0,"x_max":0,"o":"m 1210 628 b 1219 522 1215 591 1219 556 b 657 -26 1219 189 968 -26 b 47 545 310 -26 47 233 b 650 1120 47 857 311 1120 b 1040 975 789 1118 949 1059 l 879 755 b 650 848 818 812 730 848 b 344 546 487 848 344 715 b 669 243 344 393 467 243 b 899 412 801 243 895 307 l 649 412 l 649 628 l 1210 628 m 652 -77 b 778 -218 727 -77 778 -133 b 604 -416 778 -315 711 -416 b 532 -385 561 -416 532 -395 b 627 -307 564 -385 627 -363 b 618 -276 627 -290 623 -282 b 526 -185 574 -276 526 -237 b 652 -77 526 -128 579 -77 "},"Ġ":{"ha":1266,"x_min":0,"x_max":0,"o":"m 650 1193 b 536 1299 587 1193 536 1241 b 650 1409 536 1358 587 1409 b 766 1300 713 1409 766 1358 b 650 1193 766 1240 713 1193 m 1210 628 b 1219 522 1215 591 1219 556 b 657 -26 1219 189 968 -26 b 47 545 310 -26 47 233 b 650 1120 47 857 311 1120 b 1040 975 789 1118 949 1059 l 879 755 b 650 848 818 812 730 848 b 344 546 487 848 344 715 b 669 243 344 393 467 243 b 899 412 801 243 895 307 l 649 412 l 649 628 l 1210 628 "},"H":{"ha":1095,"x_min":0,"x_max":0,"o":"m 1000 1093 l 1000 0 l 710 0 l 710 412 l 385 412 l 385 0 l 95 0 l 95 1093 l 385 1093 l 385 683 l 710 683 l 710 1093 "},"Ħ":{"ha":1095,"x_min":0,"x_max":0,"o":"m 1082 785 l 1000 785 l 1000 0 l 710 0 l 710 412 l 385 412 l 385 0 l 95 0 l 95 785 l 13 785 l 13 941 l 95 941 l 95 1093 l 385 1093 l 385 941 l 710 941 l 710 1093 l 1000 1093 l 1000 941 l 1082 941 m 710 785 l 385 785 l 385 683 l 710 683 "},"I":{"ha":480,"x_min":0,"x_max":0,"o":"m 95 1093 l 385 1093 l 385 0 l 95 0 "},"Í":{"ha":480,"x_min":0,"x_max":0,"o":"m 126 1183 l 243 1412 l 470 1412 l 309 1183 m 95 1093 l 385 1093 l 385 0 l 95 0 "},"Î":{"ha":480,"x_min":0,"x_max":0,"o":"m 158 1392 l 320 1392 l 534 1193 l 326 1193 l 239 1281 l 153 1193 l -53 1193 m 95 1093 l 385 1093 l 385 0 l 95 0 "},"Ï":{"ha":480,"x_min":0,"x_max":0,"o":"m 77 1194 b -23 1287 22 1194 -23 1236 b 77 1381 -23 1337 22 1381 b 176 1287 131 1381 176 1337 b 77 1194 176 1236 131 1194 m 404 1194 b 304 1287 349 1194 304 1236 b 404 1381 304 1337 350 1381 b 504 1287 458 1381 504 1337 b 404 1194 504 1236 458 1194 m 95 1093 l 385 1093 l 385 0 l 95 0 "},"İ":{"ha":480,"x_min":0,"x_max":0,"o":"m 241 1193 b 126 1299 177 1193 126 1241 b 241 1409 126 1358 178 1409 b 356 1300 304 1409 356 1358 b 241 1193 356 1240 303 1193 m 95 1093 l 385 1093 l 385 0 l 95 0 "},"Ì":{"ha":480,"x_min":0,"x_max":0,"o":"m 68 1412 l 296 1412 l 412 1183 l 230 1183 m 95 1093 l 385 1093 l 385 0 l 95 0 "},"Ī":{"ha":480,"x_min":0,"x_max":0,"o":"m 18 1358 l 463 1358 l 463 1221 l 18 1221 m 95 1093 l 385 1093 l 385 0 l 95 0 "},"Į":{"ha":480,"x_min":0,"x_max":0,"o":"m 398 -372 b 267 -387 350 -382 307 -387 b 50 -218 125 -387 50 -323 b 195 0 50 -123 111 -43 l 95 0 l 95 1093 l 385 1093 l 385 0 b 252 -157 292 -69 252 -111 b 291 -201 252 -180 263 -201 b 372 -189 306 -201 336 -197 "},"J":{"ha":854,"x_min":0,"x_max":0,"o":"m 292 -18 b 28 58 189 -18 108 6 l 175 297 b 294 256 214 267 241 256 l 299 256 b 479 422 399 256 479 334 l 473 1093 l 764 1093 l 769 420 b 300 -18 769 173 562 -18 l 292 -18 "},"K":{"ha":1023,"x_min":0,"x_max":0,"o":"m 661 0 l 385 416 l 385 0 l 95 0 l 95 1093 l 385 1093 l 385 686 l 638 1093 l 972 1093 l 637 560 l 1013 0 "},"Ķ":{"ha":1023,"x_min":0,"x_max":0,"o":"m 385 416 l 385 0 l 95 0 l 95 1093 l 385 1093 l 385 686 l 638 1093 l 972 1093 l 637 560 l 1013 0 l 661 0 m 547 -77 b 672 -218 621 -77 672 -133 b 498 -416 672 -315 606 -416 b 426 -385 455 -416 426 -395 b 521 -307 458 -385 521 -363 b 513 -276 521 -290 517 -282 b 420 -185 469 -276 420 -237 b 547 -77 420 -128 473 -77 "},"L":{"ha":832,"x_min":0,"x_max":0,"o":"m 804 273 l 804 0 l 95 0 l 95 1093 l 385 1093 l 385 273 "},"Ĺ":{"ha":832,"x_min":0,"x_max":0,"o":"m 490 1183 l 308 1183 l 425 1412 l 652 1412 m 804 273 l 804 0 l 95 0 l 95 1093 l 385 1093 l 385 273 "},"Ľ":{"ha":832,"x_min":0,"x_max":0,"o":"m 634 844 l 478 844 l 526 1162 l 715 1162 m 804 273 l 804 0 l 95 0 l 95 1093 l 385 1093 l 385 273 "},"Ļ":{"ha":832,"x_min":0,"x_max":0,"o":"m 804 273 l 804 0 l 95 0 l 95 1093 l 385 1093 l 385 273 m 425 -77 b 550 -218 499 -77 550 -133 b 376 -416 550 -315 484 -416 b 304 -385 333 -416 304 -395 b 399 -307 336 -385 399 -363 b 391 -276 399 -290 395 -282 b 298 -185 347 -276 298 -237 b 425 -77 298 -128 351 -77 "},"Ł":{"ha":832,"x_min":0,"x_max":0,"o":"m 804 273 l 804 0 l 95 0 l 95 341 l -11 270 l -11 480 l 95 551 l 95 1093 l 385 1093 l 385 746 l 505 827 l 505 616 l 385 535 l 385 273 "},"M":{"ha":1362,"x_min":0,"x_max":0,"o":"m 1267 1103 l 1267 0 l 977 0 l 977 433 l 682 18 l 680 18 l 385 433 l 385 0 l 95 0 l 95 1103 l 212 1103 l 681 460 l 1150 1103 "},"N":{"ha":1135,"x_min":0,"x_max":0,"o":"m 1040 1095 l 1040 -11 l 947 -11 l 385 534 l 385 -1 l 95 -1 l 95 1104 l 189 1104 l 749 562 l 749 1095 "},"Ń":{"ha":1135,"x_min":0,"x_max":0,"o":"m 635 1183 l 453 1183 l 570 1412 l 797 1412 m 1040 1095 l 1040 -11 l 947 -11 l 385 534 l 385 -1 l 95 -1 l 95 1104 l 189 1104 l 749 562 l 749 1095 "},"Ň":{"ha":1135,"x_min":0,"x_max":0,"o":"m 485 1193 l 274 1392 l 480 1392 l 566 1303 l 652 1392 l 861 1392 l 647 1193 m 1040 1095 l 1040 -11 l 947 -11 l 385 534 l 385 -1 l 95 -1 l 95 1104 l 189 1104 l 749 562 l 749 1095 "},"Ņ":{"ha":1135,"x_min":0,"x_max":0,"o":"m 1040 1095 l 1040 -11 l 947 -11 l 385 534 l 385 -1 l 95 -1 l 95 1104 l 189 1104 l 749 562 l 749 1095 m 570 -77 b 695 -218 644 -77 695 -133 b 522 -416 695 -315 629 -416 b 449 -385 478 -416 449 -395 b 544 -307 481 -385 544 -363 b 536 -276 544 -290 541 -282 b 444 -185 492 -276 444 -237 b 570 -77 444 -128 496 -77 "},"Ŋ":{"ha":1135,"x_min":0,"x_max":0,"o":"m 1040 1095 l 1040 -29 b 797 -357 1040 -182 946 -295 l 642 -238 b 766 -33 715 -197 766 -136 l 766 165 l 385 534 l 385 -1 l 95 -1 l 95 1104 l 189 1104 l 749 562 l 749 1095 "},"Ñ":{"ha":1135,"x_min":0,"x_max":0,"o":"m 463 1284 b 395 1200 424 1284 406 1246 l 263 1240 b 461 1422 292 1382 384 1422 b 673 1335 574 1422 614 1335 b 741 1419 711 1335 729 1372 l 872 1378 b 674 1196 843 1233 747 1196 b 463 1284 560 1196 523 1284 m 1040 1095 l 1040 -11 l 947 -11 l 385 534 l 385 -1 l 95 -1 l 95 1104 l 189 1104 l 749 562 l 749 1095 "},"O":{"ha":1295,"x_min":0,"x_max":0,"o":"m 647 -28 b 47 545 307 -28 47 220 b 648 1122 47 873 308 1122 b 1248 545 987 1122 1248 873 b 647 -28 1248 220 987 -28 m 648 250 b 954 547 821 250 954 379 b 648 846 954 716 821 846 b 341 547 474 846 341 716 b 648 250 341 379 474 250 "},"Ó":{"ha":1295,"x_min":0,"x_max":0,"o":"m 533 1183 l 650 1412 l 877 1412 l 715 1183 m 647 -28 b 47 545 307 -28 47 220 b 648 1122 47 873 308 1122 b 1248 545 987 1122 1248 873 b 647 -28 1248 220 987 -28 m 648 250 b 954 547 821 250 954 379 b 648 846 954 716 821 846 b 341 547 474 846 341 716 b 648 250 341 379 474 250 "},"Ô":{"ha":1295,"x_min":0,"x_max":0,"o":"m 566 1392 l 728 1392 l 941 1193 l 733 1193 l 647 1281 l 561 1193 l 355 1193 m 647 -28 b 47 545 307 -28 47 220 b 648 1122 47 873 308 1122 b 1248 545 987 1122 1248 873 b 647 -28 1248 220 987 -28 m 648 250 b 954 547 821 250 954 379 b 648 846 954 716 821 846 b 341 547 474 846 341 716 b 648 250 341 379 474 250 "},"Ö":{"ha":1295,"x_min":0,"x_max":0,"o":"m 485 1194 b 385 1287 430 1194 385 1236 b 485 1381 385 1337 430 1381 b 584 1287 538 1381 584 1337 b 485 1194 584 1236 538 1194 m 811 1194 b 712 1287 757 1194 712 1236 b 811 1381 712 1337 758 1381 b 911 1287 866 1381 911 1337 b 811 1194 911 1236 866 1194 m 647 -28 b 47 545 307 -28 47 220 b 648 1122 47 873 308 1122 b 1248 545 987 1122 1248 873 b 647 -28 1248 220 987 -28 m 648 250 b 954 547 821 250 954 379 b 648 846 954 716 821 846 b 341 547 474 846 341 716 b 648 250 341 379 474 250 "},"Ò":{"ha":1295,"x_min":0,"x_max":0,"o":"m 476 1412 l 703 1412 l 820 1183 l 637 1183 m 647 -28 b 47 545 307 -28 47 220 b 648 1122 47 873 308 1122 b 1248 545 987 1122 1248 873 b 647 -28 1248 220 987 -28 m 648 250 b 954 547 821 250 954 379 b 648 846 954 716 821 846 b 341 547 474 846 341 716 b 648 250 341 379 474 250 "},"Ő":{"ha":1295,"x_min":0,"x_max":0,"o":"m 473 1412 l 676 1412 l 543 1183 l 380 1183 m 783 1412 l 1010 1412 l 814 1183 l 642 1183 m 647 -28 b 47 545 307 -28 47 220 b 648 1122 47 873 308 1122 b 1248 545 987 1122 1248 873 b 647 -28 1248 220 987 -28 m 648 250 b 954 547 821 250 954 379 b 648 846 954 716 821 846 b 341 547 474 846 341 716 b 648 250 341 379 474 250 "},"Ō":{"ha":1295,"x_min":0,"x_max":0,"o":"m 426 1358 l 870 1358 l 870 1221 l 426 1221 m 647 -28 b 47 545 307 -28 47 220 b 648 1122 47 873 308 1122 b 1248 545 987 1122 1248 873 b 647 -28 1248 220 987 -28 m 648 250 b 954 547 821 250 954 379 b 648 846 954 716 821 846 b 341 547 474 846 341 716 b 648 250 341 379 474 250 "},"Ø":{"ha":1295,"x_min":0,"x_max":0,"o":"m 1067 965 b 1248 545 1179 861 1248 713 b 647 -28 1248 220 987 -28 b 411 16 562 -28 483 -12 l 361 -56 l 129 -56 l 246 113 b 47 545 123 217 47 370 b 648 1122 47 873 308 1122 b 907 1069 741 1122 829 1103 l 941 1118 l 1173 1118 l 1067 965 m 341 547 b 412 353 341 473 368 405 l 743 832 b 648 846 713 842 681 846 b 341 547 474 846 341 716 m 648 250 b 954 547 821 250 954 379 b 899 722 954 613 934 673 l 578 257 b 648 250 600 252 623 250 "},"Õ":{"ha":1295,"x_min":0,"x_max":0,"o":"m 343 1240 b 541 1422 372 1382 464 1422 b 753 1335 654 1422 694 1335 b 821 1419 791 1335 809 1372 l 952 1378 b 754 1196 923 1233 827 1196 b 543 1284 640 1196 603 1284 b 475 1200 504 1284 486 1246 m 647 -28 b 47 545 307 -28 47 220 b 648 1122 47 873 308 1122 b 1248 545 987 1122 1248 873 b 647 -28 1248 220 987 -28 m 648 250 b 954 547 821 250 954 379 b 648 846 954 716 821 846 b 341 547 474 846 341 716 b 648 250 341 379 474 250 "},"Œ":{"ha":1776,"x_min":0,"x_max":0,"o":"m 1288 823 l 1288 671 l 1634 671 l 1634 429 l 1288 429 l 1288 272 l 1710 272 l 1710 0 l 1001 0 l 1001 114 b 640 -28 907 25 782 -28 b 47 545 307 -28 47 220 b 641 1122 47 873 308 1122 b 1001 980 782 1122 907 1069 l 1001 1093 l 1710 1093 l 1710 823 m 648 250 b 954 547 821 250 954 379 b 648 846 954 716 821 846 b 341 547 474 846 341 716 b 648 250 341 379 474 250 "},"P":{"ha":949,"x_min":0,"x_max":0,"o":"m 95 1093 l 508 1093 b 921 710 733 1093 921 924 b 508 322 921 499 737 322 l 385 322 l 385 0 l 95 0 m 508 589 b 641 709 586 589 641 642 b 508 825 641 775 585 825 l 385 825 l 385 590 l 508 589 "},"Þ":{"ha":972,"x_min":0,"x_max":0,"o":"m 95 1093 l 385 1093 l 385 927 l 531 927 b 924 553 754 927 924 762 b 531 180 924 345 754 180 l 385 180 l 385 0 l 95 0 m 531 431 b 658 553 602 431 658 486 b 531 677 658 621 603 677 l 385 677 l 385 431 "},"Q":{"ha":1301,"x_min":0,"x_max":0,"o":"m 1153 -212 b 729 -23 955 -197 828 -116 b 647 -28 702 -26 675 -28 b 47 545 307 -28 47 220 b 648 1122 47 873 308 1122 b 1248 545 987 1122 1248 873 b 1002 77 1248 348 1152 180 b 1252 47 1076 60 1164 49 m 341 547 b 648 250 341 379 474 250 b 954 547 821 250 954 379 b 648 846 954 716 821 846 b 341 547 474 846 341 716 "},"R":{"ha":1028,"x_min":0,"x_max":0,"o":"m 679 0 l 387 475 l 387 0 l 96 0 l 95 1093 l 510 1093 b 915 738 746 1093 915 934 b 726 439 915 602 833 488 l 1019 0 m 385 613 l 504 612 b 622 722 566 612 622 655 b 504 832 622 790 565 832 l 385 832 "},"Ŕ":{"ha":1028,"x_min":0,"x_max":0,"o":"m 586 1183 l 404 1183 l 520 1412 l 747 1412 m 679 0 l 387 475 l 387 0 l 96 0 l 95 1093 l 510 1093 b 915 738 746 1093 915 934 b 726 439 915 602 833 488 l 1019 0 m 385 613 l 504 612 b 622 722 566 612 622 655 b 504 832 622 790 565 832 l 385 832 "},"Ř":{"ha":1028,"x_min":0,"x_max":0,"o":"m 435 1193 l 224 1392 l 431 1392 l 517 1303 l 603 1392 l 811 1392 l 597 1193 m 679 0 l 387 475 l 387 0 l 96 0 l 95 1093 l 510 1093 b 915 738 746 1093 915 934 b 726 439 915 602 833 488 l 1019 0 m 385 613 l 504 612 b 622 722 566 612 622 655 b 504 832 622 790 565 832 l 385 832 "},"Ŗ":{"ha":1028,"x_min":0,"x_max":0,"o":"m 1019 0 l 679 0 l 387 475 l 387 0 l 96 0 l 95 1093 l 510 1093 b 915 738 746 1093 915 934 b 726 439 915 602 833 488 m 385 613 l 504 612 b 622 722 566 612 622 655 b 504 832 622 790 565 832 l 385 832 m 520 -77 b 646 -218 595 -77 646 -133 b 472 -416 646 -315 579 -416 b 399 -385 429 -416 399 -395 b 494 -307 432 -385 494 -363 b 486 -276 494 -290 491 -282 b 394 -185 442 -276 394 -237 b 520 -77 394 -128 447 -77 "},"S":{"ha":887,"x_min":0,"x_max":0,"o":"m 436 -15 b 38 185 256 -15 93 64 l 214 357 b 435 250 259 290 344 250 b 557 317 497 250 557 272 b 338 470 557 373 446 422 b 81 785 200 530 81 621 b 469 1109 81 975 261 1109 b 808 923 635 1109 766 1031 l 641 762 b 472 844 608 819 524 844 b 370 777 412 844 370 814 b 565 661 370 726 447 710 b 849 323 736 589 849 484 b 436 -15 849 115 655 -15 "},"Ś":{"ha":887,"x_min":0,"x_max":0,"o":"m 336 1183 l 452 1412 l 680 1412 l 518 1183 m 436 -15 b 38 185 256 -15 93 64 l 214 357 b 435 250 259 290 344 250 b 557 317 497 250 557 272 b 338 470 557 373 446 422 b 81 785 200 530 81 621 b 469 1109 81 975 261 1109 b 808 923 635 1109 766 1031 l 641 762 b 472 844 608 819 524 844 b 370 777 412 844 370 814 b 565 661 370 726 447 710 b 849 323 736 589 849 484 b 436 -15 849 115 655 -15 "},"Š":{"ha":887,"x_min":0,"x_max":0,"o":"m 363 1392 l 449 1303 l 535 1392 l 743 1392 l 530 1193 l 368 1193 l 157 1392 m 436 -15 b 38 185 256 -15 93 64 l 214 357 b 435 250 259 290 344 250 b 557 317 497 250 557 272 b 338 470 557 373 446 422 b 81 785 200 530 81 621 b 469 1109 81 975 261 1109 b 808 923 635 1109 766 1031 l 641 762 b 472 844 608 819 524 844 b 370 777 412 844 370 814 b 565 661 370 726 447 710 b 849 323 736 589 849 484 b 436 -15 849 115 655 -15 "},"Ş":{"ha":887,"x_min":0,"x_max":0,"o":"m 849 323 b 519 -9 849 142 702 20 l 477 -59 b 494 -58 484 -59 488 -58 b 602 -174 555 -58 602 -109 b 302 -389 602 -286 466 -391 l 235 -233 b 416 -180 367 -233 416 -210 b 373 -149 416 -169 409 -149 b 340 -154 364 -149 353 -151 l 308 -113 l 389 -13 b 38 185 228 -1 88 75 l 214 357 b 435 250 259 290 344 250 b 557 317 497 250 557 272 b 338 470 557 373 446 422 b 81 785 200 530 81 621 b 469 1109 81 975 261 1109 b 808 923 635 1109 766 1031 l 641 762 b 472 844 608 819 524 844 b 370 777 412 844 370 814 b 565 661 370 726 447 710 b 849 323 736 589 849 484 "},"Ș":{"ha":887,"x_min":0,"x_max":0,"o":"m 436 -15 b 38 185 256 -15 93 64 l 214 357 b 435 250 259 290 344 250 b 557 317 497 250 557 272 b 338 470 557 373 446 422 b 81 785 200 530 81 621 b 469 1109 81 975 261 1109 b 808 923 635 1109 766 1031 l 641 762 b 472 844 608 819 524 844 b 370 777 412 844 370 814 b 565 661 370 726 447 710 b 849 323 736 589 849 484 b 436 -15 849 115 655 -15 m 404 -416 b 332 -385 361 -416 332 -395 b 427 -307 364 -385 427 -363 b 418 -276 427 -290 423 -282 b 326 -185 374 -276 326 -237 b 452 -77 326 -128 379 -77 b 578 -218 527 -77 578 -133 b 404 -416 578 -315 511 -416 "},"ß":{"ha":1337,"x_min":0,"x_max":0,"o":"m 1059 663 b 1309 318 1232 575 1309 459 b 902 -32 1309 118 1154 -32 b 512 184 726 -32 593 41 l 696 359 b 907 229 737 292 808 229 b 1023 305 972 229 1023 258 b 842 481 1023 367 937 431 b 554 597 767 519 633 581 l 724 852 b 612 877 687 869 649 877 b 380 652 515 877 380 814 l 380 0 l 95 0 l 95 652 b 654 1124 95 972 355 1124 b 1112 981 827 1124 1007 1063 l 905 724 b 1059 663 952 711 1006 689 "},"Ə":{"ha":1264,"x_min":0,"x_max":0,"o":"m 633 -8 b 47 549 309 -8 47 234 b 61 665 47 589 52 638 l 916 665 b 629 850 870 773 762 850 b 428 788 564 850 498 833 l 254 969 b 628 1101 346 1054 484 1101 b 1217 545 988 1102 1217 831 b 633 -8 1217 233 956 -8 m 632 242 b 916 427 753 242 871 318 l 347 427 b 632 242 386 330 498 242 "},"T":{"ha":872,"x_min":0,"x_max":0,"o":"m 844 822 l 582 822 l 582 0 l 291 0 l 291 822 l 28 822 l 28 1093 l 844 1093 "},"Ŧ":{"ha":872,"x_min":0,"x_max":0,"o":"m 582 822 l 582 625 l 733 625 l 733 469 l 582 469 l 582 0 l 291 0 l 291 469 l 139 469 l 139 625 l 291 625 l 291 822 l 28 822 l 28 1093 l 844 1093 l 844 822 "},"Ť":{"ha":872,"x_min":0,"x_max":0,"o":"m 353 1193 l 142 1392 l 349 1392 l 435 1303 l 521 1392 l 729 1392 l 515 1193 m 844 822 l 582 822 l 582 0 l 291 0 l 291 822 l 28 822 l 28 1093 l 844 1093 "},"Ţ":{"ha":872,"x_min":0,"x_max":0,"o":"m 513 0 l 463 -59 b 479 -58 469 -59 473 -58 b 588 -174 541 -58 588 -109 b 288 -389 588 -286 452 -391 l 221 -233 b 401 -180 353 -233 401 -210 b 359 -149 401 -169 395 -149 b 326 -154 350 -149 339 -151 l 294 -113 l 385 0 l 291 0 l 291 822 l 28 822 l 28 1093 l 844 1093 l 844 822 l 582 822 l 582 0 "},"Ț":{"ha":872,"x_min":0,"x_max":0,"o":"m 844 822 l 582 822 l 582 0 l 291 0 l 291 822 l 28 822 l 28 1093 l 844 1093 m 438 -77 b 564 -218 513 -77 564 -133 b 390 -416 564 -315 497 -416 b 317 -385 347 -416 317 -395 b 412 -307 350 -385 412 -363 b 404 -276 412 -290 409 -282 b 312 -185 360 -276 312 -237 b 438 -77 312 -128 365 -77 "},"U":{"ha":1078,"x_min":0,"x_max":0,"o":"m 539 -31 b 85 397 289 -31 85 146 l 85 1093 l 378 1093 l 378 398 b 538 247 378 307 456 247 b 701 398 621 247 701 309 l 701 1093 l 993 1093 l 993 397 b 539 -31 993 146 789 -31 "},"Ú":{"ha":1078,"x_min":0,"x_max":0,"o":"m 425 1183 l 541 1412 l 768 1412 l 607 1183 m 539 -31 b 85 397 289 -31 85 146 l 85 1093 l 378 1093 l 378 398 b 538 247 378 307 456 247 b 701 398 621 247 701 309 l 701 1093 l 993 1093 l 993 397 b 539 -31 993 146 789 -31 "},"Û":{"ha":1078,"x_min":0,"x_max":0,"o":"m 456 1392 l 618 1392 l 832 1193 l 624 1193 l 538 1281 l 452 1193 l 245 1193 m 539 -31 b 85 397 289 -31 85 146 l 85 1093 l 378 1093 l 378 398 b 538 247 378 307 456 247 b 701 398 621 247 701 309 l 701 1093 l 993 1093 l 993 397 b 539 -31 993 146 789 -31 "},"Ü":{"ha":1078,"x_min":0,"x_max":0,"o":"m 376 1194 b 275 1287 321 1194 275 1236 b 376 1381 275 1337 321 1381 b 475 1287 429 1381 475 1337 b 376 1194 475 1236 429 1194 m 702 1194 b 603 1287 648 1194 603 1236 b 702 1381 603 1337 648 1381 b 802 1287 757 1381 802 1337 b 702 1194 802 1236 757 1194 m 539 -31 b 85 397 289 -31 85 146 l 85 1093 l 378 1093 l 378 398 b 538 247 378 307 456 247 b 701 398 621 247 701 309 l 701 1093 l 993 1093 l 993 397 b 539 -31 993 146 789 -31 "},"Ù":{"ha":1078,"x_min":0,"x_max":0,"o":"m 367 1412 l 594 1412 l 711 1183 l 528 1183 m 539 -31 b 85 397 289 -31 85 146 l 85 1093 l 378 1093 l 378 398 b 538 247 378 307 456 247 b 701 398 621 247 701 309 l 701 1093 l 993 1093 l 993 397 b 539 -31 993 146 789 -31 "},"Ű":{"ha":1078,"x_min":0,"x_max":0,"o":"m 365 1412 l 568 1412 l 435 1183 l 272 1183 m 674 1412 l 901 1412 l 705 1183 l 533 1183 m 539 -31 b 85 397 289 -31 85 146 l 85 1093 l 378 1093 l 378 398 b 538 247 378 307 456 247 b 701 398 621 247 701 309 l 701 1093 l 993 1093 l 993 397 b 539 -31 993 146 789 -31 "},"Ū":{"ha":1078,"x_min":0,"x_max":0,"o":"m 317 1358 l 761 1358 l 761 1221 l 317 1221 m 539 -31 b 85 397 289 -31 85 146 l 85 1093 l 378 1093 l 378 398 b 538 247 378 307 456 247 b 701 398 621 247 701 309 l 701 1093 l 993 1093 l 993 397 b 539 -31 993 146 789 -31 "},"Ų":{"ha":1078,"x_min":0,"x_max":0,"o":"m 993 1093 l 993 397 b 629 -22 993 178 837 14 b 534 -151 564 -75 534 -111 b 574 -195 534 -174 546 -195 b 654 -182 589 -195 619 -191 l 681 -365 b 550 -380 633 -375 589 -380 b 332 -211 408 -380 332 -317 b 434 -20 332 -133 374 -65 b 85 397 235 22 85 182 l 85 1093 l 378 1093 l 378 398 b 538 247 378 307 456 247 b 701 398 621 247 701 309 l 701 1093 "},"Ů":{"ha":1078,"x_min":0,"x_max":0,"o":"m 540 1158 b 375 1316 450 1158 375 1229 b 540 1475 375 1403 450 1475 b 703 1316 629 1475 703 1402 b 540 1158 703 1230 629 1158 m 540 1257 b 600 1315 573 1257 600 1283 b 540 1374 600 1348 573 1374 b 479 1315 506 1374 479 1348 b 540 1257 479 1283 506 1257 m 539 -31 b 85 397 289 -31 85 146 l 85 1093 l 378 1093 l 378 398 b 538 247 378 307 456 247 b 701 398 621 247 701 309 l 701 1093 l 993 1093 l 993 397 b 539 -31 993 146 789 -31 "},"V":{"ha":1166,"x_min":0,"x_max":0,"o":"m 1152 1093 l 648 -12 l 516 -12 l 14 1093 l 328 1093 l 581 501 l 833 1093 "},"W":{"ha":1428,"x_min":0,"x_max":0,"o":"m 14 1093 l 328 1093 l 479 593 l 703 1091 l 725 1091 l 949 594 l 1099 1093 l 1413 1093 l 1048 -7 l 968 -7 l 713 534 l 459 -7 l 380 -7 "},"Ẃ":{"ha":1428,"x_min":0,"x_max":0,"o":"m 600 1183 l 716 1412 l 943 1412 l 782 1183 m 14 1093 l 328 1093 l 479 593 l 703 1091 l 725 1091 l 949 594 l 1099 1093 l 1413 1093 l 1048 -7 l 968 -7 l 713 534 l 459 -7 l 380 -7 "},"Ŵ":{"ha":1428,"x_min":0,"x_max":0,"o":"m 632 1392 l 794 1392 l 1008 1193 l 800 1193 l 713 1281 l 627 1193 l 421 1193 m 14 1093 l 328 1093 l 479 593 l 703 1091 l 725 1091 l 949 594 l 1099 1093 l 1413 1093 l 1048 -7 l 968 -7 l 713 534 l 459 -7 l 380 -7 "},"Ẅ":{"ha":1428,"x_min":0,"x_max":0,"o":"m 551 1194 b 451 1287 496 1194 451 1236 b 551 1381 451 1337 496 1381 b 650 1287 605 1381 650 1337 b 551 1194 650 1236 605 1194 m 878 1194 b 779 1287 823 1194 779 1236 b 878 1381 779 1337 824 1381 b 978 1287 932 1381 978 1337 b 878 1194 978 1236 932 1194 m 14 1093 l 328 1093 l 479 593 l 703 1091 l 725 1091 l 949 594 l 1099 1093 l 1413 1093 l 1048 -7 l 968 -7 l 713 534 l 459 -7 l 380 -7 "},"Ẁ":{"ha":1428,"x_min":0,"x_max":0,"o":"m 543 1412 l 770 1412 l 886 1183 l 704 1183 m 14 1093 l 328 1093 l 479 593 l 703 1091 l 725 1091 l 949 594 l 1099 1093 l 1413 1093 l 1048 -7 l 968 -7 l 713 534 l 459 -7 l 380 -7 "},"X":{"ha":1064,"x_min":0,"x_max":0,"o":"m 361 568 l 33 1093 l 365 1093 l 532 804 l 699 1093 l 1031 1093 l 702 568 l 1050 0 l 715 0 l 532 323 l 349 0 l 14 0 "},"Y":{"ha":991,"x_min":0,"x_max":0,"o":"m 351 472 l 14 1093 l 343 1093 l 496 777 l 648 1093 l 977 1093 l 640 472 l 640 0 l 351 0 "},"Ý":{"ha":991,"x_min":0,"x_max":0,"o":"m 382 1183 l 498 1412 l 726 1412 l 564 1183 m 351 472 l 14 1093 l 343 1093 l 496 777 l 648 1093 l 977 1093 l 640 472 l 640 0 l 351 0 "},"Ŷ":{"ha":991,"x_min":0,"x_max":0,"o":"m 414 1392 l 576 1392 l 789 1193 l 581 1193 l 495 1281 l 409 1193 l 203 1193 m 351 472 l 14 1093 l 343 1093 l 496 777 l 648 1093 l 977 1093 l 640 472 l 640 0 l 351 0 "},"ÿ":{"ha":991,"x_min":0,"x_max":0,"o":"m 333 1194 b 233 1287 278 1194 233 1236 b 333 1381 233 1337 278 1381 b 432 1287 387 1381 432 1337 b 333 1194 432 1236 387 1194 m 659 1194 b 560 1287 605 1194 560 1236 b 659 1381 560 1337 606 1381 b 760 1287 714 1381 760 1337 b 659 1194 760 1236 714 1194 m 351 472 l 14 1093 l 343 1093 l 496 777 l 648 1093 l 977 1093 l 640 472 l 640 0 l 351 0 "},"Ỳ":{"ha":991,"x_min":0,"x_max":0,"o":"m 324 1412 l 551 1412 l 668 1183 l 486 1183 m 351 472 l 14 1093 l 343 1093 l 496 777 l 648 1093 l 977 1093 l 640 472 l 640 0 l 351 0 "},"Z":{"ha":941,"x_min":0,"x_max":0,"o":"m 427 822 l 57 822 l 57 1093 l 884 1093 l 515 273 l 884 273 l 884 0 l 57 0 "},"Ź":{"ha":941,"x_min":0,"x_max":0,"o":"m 356 1183 l 473 1412 l 700 1412 l 538 1183 m 427 822 l 57 822 l 57 1093 l 884 1093 l 515 273 l 884 273 l 884 0 l 57 0 "},"Ž":{"ha":941,"x_min":0,"x_max":0,"o":"m 383 1392 l 469 1303 l 555 1392 l 764 1392 l 550 1193 l 388 1193 l 177 1392 m 427 822 l 57 822 l 57 1093 l 884 1093 l 515 273 l 884 273 l 884 0 l 57 0 "},"Ż":{"ha":941,"x_min":0,"x_max":0,"o":"m 471 1193 b 356 1299 407 1193 356 1241 b 471 1409 356 1358 408 1409 b 586 1300 534 1409 586 1358 b 471 1193 586 1240 533 1193 m 427 822 l 57 822 l 57 1093 l 884 1093 l 515 273 l 884 273 l 884 0 l 57 0 "},"i":{"ha":480,"x_min":0,"x_max":0,"o":"m 95 1093 l 385 1093 l 385 0 l 95 0 "},"ı":{"ha":480,"x_min":0,"x_max":0,"o":"m 95 1093 l 385 1093 l 385 0 l 95 0 "},".":{"ha":501,"x_min":0,"x_max":0,"o":"m 251 -39 b 71 130 152 -39 71 37 b 251 298 71 222 153 298 b 430 130 348 298 430 221 b 251 -39 430 38 349 -39 "},",":{"ha":520,"x_min":0,"x_max":0,"o":"m 197 -260 b 84 -208 130 -260 84 -227 b 218 -83 132 -208 218 -174 b 206 -33 218 -56 212 -43 b 71 120 140 -33 71 33 b 261 298 71 214 151 298 b 449 66 376 298 449 207 b 197 -260 449 -94 356 -260 "},":":{"ha":481,"x_min":0,"x_max":0,"o":"m 241 483 b 71 642 148 483 71 554 b 241 802 71 730 148 802 b 410 642 333 802 410 730 b 241 483 410 555 333 483 m 241 -8 b 71 152 148 -8 71 64 b 241 312 71 239 149 312 b 410 152 332 312 410 239 b 241 -8 410 64 333 -8 "},";":{"ha":510,"x_min":0,"x_max":0,"o":"m 241 479 b 71 639 148 479 71 551 b 241 799 71 727 148 799 b 410 639 333 799 410 726 b 241 479 410 552 333 479 m 203 -237 b 96 -188 140 -237 96 -205 b 223 -69 141 -188 223 -155 b 212 -20 223 -43 218 -31 b 84 124 149 -20 84 41 b 264 294 84 214 159 294 b 443 73 374 294 443 206 b 203 -237 443 -79 355 -237 "},"…":{"ha":1730,"x_min":0,"x_max":0,"o":"m 315 -39 b 136 130 216 -39 136 37 b 315 298 136 222 218 298 b 494 130 412 298 494 221 b 315 -39 494 38 413 -39 m 872 -39 b 693 130 774 -39 693 37 b 872 298 693 222 774 298 b 1052 130 969 298 1052 221 b 872 -39 1052 38 970 -39 m 1415 -39 b 1236 130 1316 -39 1236 37 b 1415 298 1236 222 1318 298 b 1594 130 1512 298 1594 221 b 1415 -39 1594 38 1513 -39 "},"!":{"ha":540,"x_min":0,"x_max":0,"o":"m 101 1093 l 437 1093 l 391 382 l 150 382 m 271 -39 b 101 121 178 -39 101 33 b 269 278 101 208 178 278 b 440 118 363 278 440 204 b 271 -39 440 31 363 -39 "},"¡":{"ha":540,"x_min":0,"x_max":0,"o":"m 269 827 b 439 667 363 827 439 755 b 271 511 439 581 361 511 b 100 671 177 511 100 584 b 269 827 100 758 177 827 m 439 -305 l 102 -305 l 150 407 l 391 407 "},"?":{"ha":753,"x_min":0,"x_max":0,"o":"m 200 380 b 199 431 199 389 199 397 b 391 720 199 553 264 632 b 442 801 416 738 442 766 b 334 892 442 858 404 892 b 150 775 251 892 180 840 l 47 989 b 351 1140 65 1017 123 1140 b 706 854 568 1140 706 978 b 610 618 706 747 687 688 b 469 439 547 560 469 531 b 473 381 469 401 470 392 l 200 380 m 338 -39 b 168 121 243 -39 168 35 b 336 278 168 208 245 278 b 507 118 430 278 507 204 b 338 -39 507 31 430 -39 "},"¿":{"ha":753,"x_min":0,"x_max":0,"o":"m 416 854 b 585 694 511 854 585 781 b 417 538 585 608 509 538 b 246 698 323 538 246 612 b 416 854 246 785 323 854 m 553 435 b 555 385 555 427 555 419 b 362 96 555 262 489 184 b 311 15 337 78 311 50 b 419 -77 311 -43 349 -77 b 604 41 503 -77 574 -25 l 706 -173 b 402 -324 688 -201 630 -324 b 47 -39 185 -324 47 -162 b 144 197 47 69 66 127 b 284 376 207 256 284 285 b 281 435 284 414 283 424 l 553 435 "},"·":{"ha":501,"x_min":0,"x_max":0,"o":"m 251 364 b 71 532 152 364 71 439 b 251 701 71 624 153 701 b 430 532 348 701 430 623 b 251 364 430 440 349 364 "},"•":{"ha":831,"x_min":0,"x_max":0,"o":"m 414 275 b 136 535 255 275 136 387 b 416 798 136 685 256 798 b 695 536 576 798 695 686 b 414 275 695 387 575 275 "},"*":{"ha":637,"x_min":0,"x_max":0,"o":"m 259 801 l 146 694 l 47 832 l 227 896 l 47 956 l 146 1095 l 259 989 l 224 1148 l 413 1148 l 378 989 l 490 1095 l 590 956 l 411 890 l 590 832 l 490 694 l 378 800 l 413 641 l 224 641 "},"#":{"ha":1096,"x_min":0,"x_max":0,"o":"m 887 618 l 863 436 l 1012 436 l 986 235 l 838 235 l 807 0 l 576 0 l 606 235 l 416 235 l 386 0 l 154 0 l 184 235 l 34 235 l 60 436 l 211 436 l 235 618 l 84 618 l 111 820 l 261 820 l 296 1093 l 528 1093 l 492 820 l 682 820 l 718 1093 l 949 1093 l 913 820 l 1062 820 l 1036 618 m 656 618 l 466 618 l 442 436 l 632 436 "},"/":{"ha":727,"x_min":0,"x_max":0,"o":"m 459 1175 l 713 1175 l 267 -81 l 14 -81 "},"\\":{"ha":727,"x_min":0,"x_max":0,"o":"m 461 -81 l 15 1175 l 268 1175 l 713 -81 "},"‥":{"ha":1121,"x_min":0,"x_max":0,"o":"m 315 -39 b 136 130 216 -39 136 37 b 315 298 136 222 218 298 b 494 130 412 298 494 221 b 315 -39 494 38 413 -39 m 806 -39 b 627 130 707 -39 627 37 b 806 298 627 222 708 298 b 985 130 903 298 985 221 b 806 -39 985 38 904 -39 "},"(":{"ha":513,"x_min":0,"x_max":0,"o":"m 233 -81 b 47 547 94 103 47 351 b 233 1175 47 744 93 990 l 464 1175 b 309 547 361 1002 309 720 b 465 -81 309 374 362 91 l 233 -81 "},")":{"ha":513,"x_min":0,"x_max":0,"o":"m 47 -81 b 204 547 151 91 204 374 b 49 1175 204 720 151 1002 l 280 1175 b 465 547 420 990 465 744 b 279 -81 465 351 419 103 "},"{":{"ha":662,"x_min":0,"x_max":0,"o":"m 420 -81 b 208 106 303 -81 208 3 l 208 258 b 47 477 208 378 132 477 l 47 625 b 208 844 132 625 208 724 l 208 987 b 420 1175 208 1090 303 1175 l 614 1175 l 614 972 l 523 969 b 456 867 482 968 456 922 l 456 823 b 301 551 456 673 387 551 b 456 279 387 551 456 429 l 456 227 b 524 121 456 169 482 121 l 614 121 l 614 -81 l 420 -81 "},"}":{"ha":662,"x_min":0,"x_max":0,"o":"m 48 -81 l 48 121 l 139 121 b 206 227 180 121 206 169 l 206 279 b 361 551 206 429 276 551 b 206 823 276 551 206 673 l 206 867 b 139 969 206 922 180 968 l 48 972 l 48 1175 l 243 1175 b 454 987 359 1175 454 1090 l 454 844 b 614 625 454 724 530 625 l 614 477 b 454 258 530 477 454 378 l 454 106 b 243 -81 454 3 359 -81 "},"[":{"ha":572,"x_min":0,"x_max":0,"o":"m 343 972 l 343 121 l 524 121 l 524 -81 l 95 -81 l 95 1175 l 524 1175 l 524 972 "},"]":{"ha":572,"x_min":0,"x_max":0,"o":"m 477 -81 l 47 -81 l 47 121 l 229 121 l 229 972 l 47 972 l 47 1175 l 477 1175 "},"-":{"ha":671,"x_min":0,"x_max":0,"o":"m 47 655 l 624 655 l 624 417 l 47 417 "},"–":{"ha":1046,"x_min":0,"x_max":0,"o":"m 51 655 l 996 655 l 996 417 l 51 417 "},"—":{"ha":1389,"x_min":0,"x_max":0,"o":"m 44 655 l 1345 655 l 1345 417 l 44 417 "},"‒":{"ha":751,"x_min":0,"x_max":0,"o":"m 47 655 l 704 655 l 704 417 l 47 417 "},"_":{"ha":882,"x_min":0,"x_max":0,"o":"m 0 93 l 882 93 l 882 -92 l 0 -92 "},"‚":{"ha":439,"x_min":0,"x_max":0,"o":"m 162 -215 b 60 -168 102 -215 60 -185 b 181 -54 102 -168 181 -136 b 170 -7 181 -29 176 -17 b 47 130 111 -7 47 51 b 220 293 47 216 119 293 b 391 81 325 293 391 210 b 162 -215 391 -64 307 -215 "},"„":{"ha":846,"x_min":0,"x_max":0,"o":"m 162 -217 b 60 -170 102 -217 60 -187 b 181 -56 102 -170 181 -138 b 170 -9 181 -31 176 -19 b 47 128 111 -9 47 49 b 220 291 47 214 119 291 b 391 79 325 291 391 208 b 162 -217 391 -66 307 -217 m 570 -217 b 467 -170 509 -217 467 -187 b 589 -56 510 -170 589 -138 b 578 -9 589 -31 584 -19 b 455 128 518 -9 455 49 b 628 291 455 214 527 291 b 799 79 732 291 799 208 b 570 -217 799 -66 714 -217 "},"“":{"ha":846,"x_min":0,"x_max":0,"o":"m 277 1114 b 379 1067 337 1114 379 1084 b 258 954 336 1067 258 1036 b 268 907 258 928 262 916 b 391 769 328 907 391 848 b 218 606 391 683 319 606 b 47 818 113 606 47 690 b 277 1114 47 963 132 1114 m 684 1114 b 787 1067 745 1114 787 1084 b 665 954 743 1067 665 1036 b 675 907 665 928 670 916 b 798 769 736 907 798 848 b 626 606 798 683 726 606 b 455 818 521 606 455 690 b 684 1114 455 963 539 1114 "},"”":{"ha":846,"x_min":0,"x_max":0,"o":"m 162 612 b 60 659 102 612 60 642 b 181 773 102 659 181 690 b 170 819 181 798 176 810 b 47 958 111 819 47 878 b 220 1120 47 1044 119 1120 b 391 908 325 1120 391 1036 b 162 612 391 763 307 612 m 570 612 b 467 659 509 612 467 642 b 589 773 510 659 589 690 b 578 819 589 798 584 810 b 455 958 518 819 455 878 b 628 1120 455 1044 527 1120 b 799 908 732 1120 799 1036 b 570 612 799 763 714 612 "},"‘":{"ha":439,"x_min":0,"x_max":0,"o":"m 277 1114 b 379 1067 337 1114 379 1084 b 258 954 336 1067 258 1036 b 268 907 258 928 262 916 b 391 769 328 907 391 848 b 218 606 391 683 319 606 b 47 818 113 606 47 690 b 277 1114 47 963 132 1114 "},"’":{"ha":439,"x_min":0,"x_max":0,"o":"m 162 618 b 60 666 102 618 60 649 b 181 780 102 666 181 697 b 170 826 181 805 176 817 b 47 964 111 826 47 885 b 220 1126 47 1050 119 1126 b 391 915 325 1126 391 1043 b 162 618 391 770 307 618 "},"‛":{"ha":439,"x_min":0,"x_max":0,"o":"m 277 621 b 47 918 132 621 47 772 b 218 1129 47 1046 113 1129 b 391 967 319 1129 391 1053 b 268 829 391 888 328 829 b 258 783 262 819 258 808 b 379 669 258 700 336 669 b 277 621 379 652 337 621 "},"«":{"ha":924,"x_min":0,"x_max":0,"o":"m 301 536 l 496 206 l 316 172 l 47 536 l 316 901 l 496 866 m 681 536 l 876 206 l 696 172 l 427 536 l 696 901 l 876 866 "},"»":{"ha":924,"x_min":0,"x_max":0,"o":"m 496 536 l 229 172 l 47 206 l 243 536 l 47 866 l 229 901 m 876 536 l 608 172 l 427 206 l 623 536 l 427 866 l 608 901 "},"‹":{"ha":544,"x_min":0,"x_max":0,"o":"m 301 536 l 496 206 l 316 172 l 47 536 l 316 901 l 496 866 "},"›":{"ha":544,"x_min":0,"x_max":0,"o":"m 496 536 l 229 172 l 47 206 l 243 536 l 47 866 l 229 901 "},"\"":{"ha":731,"x_min":0,"x_max":0,"o":"m 47 1121 l 339 1121 l 273 731 l 113 731 m 393 1121 l 684 1121 l 618 731 l 458 731 "},"'":{"ha":387,"x_min":0,"x_max":0,"o":"m 47 1121 l 339 1121 l 273 731 l 113 731 "},"　":{"ha":1493,"x_min":0,"x_max":0,"o":""}," ":{"ha":6719,"x_min":0,"x_max":0,"o":""}," ":{"ha":1493,"x_min":0,"x_max":0,"o":""}," ":{"ha":1493,"x_min":0,"x_max":0,"o":""}," ":{"ha":747,"x_min":0,"x_max":0,"o":""}," ":{"ha":747,"x_min":0,"x_max":0,"o":""}," ":{"ha":1061,"x_min":0,"x_max":0,"o":""}," ":{"ha":374,"x_min":0,"x_max":0,"o":""}," ":{"ha":214,"x_min":0,"x_max":0,"o":""}," ":{"ha":350,"x_min":0,"x_max":0,"o":""}," ":{"ha":501,"x_min":0,"x_max":0,"o":""}," ":{"ha":249,"x_min":0,"x_max":0,"o":""}," ":{"ha":299,"x_min":0,"x_max":0,"o":""}," ":{"ha":498,"x_min":0,"x_max":0,"o":""},"​":{"ha":0,"x_min":0,"x_max":0,"o":""},"‍":{"ha":0,"x_min":0,"x_max":0,"o":""},"‌":{"ha":0,"x_min":0,"x_max":0,"o":""},"":{"ha":1453,"x_min":0,"x_max":0,"o":""},"฿":{"ha":941,"x_min":0,"x_max":0,"o":"m 678 616 b 926 334 795 616 926 498 b 562 0 926 161 781 0 l 547 0 l 547 -153 l 320 -153 l 320 0 l 95 0 l 95 1093 l 320 1093 l 320 1246 l 547 1246 l 547 1083 b 798 809 696 1049 798 935 b 678 616 798 696 723 616 m 374 669 l 444 669 b 554 757 507 669 554 701 b 446 841 554 810 508 841 l 374 841 m 517 264 b 648 368 584 264 648 296 b 519 471 648 432 602 471 l 374 471 l 374 264 l 517 264 "},"₿":{"ha":941,"x_min":0,"x_max":0,"o":"m 926 334 b 625 5 926 178 808 32 l 625 -153 l 469 -153 l 469 0 l 404 0 l 404 -153 l 249 -153 l 249 0 l 95 0 l 95 1093 l 245 1093 l 245 1246 l 401 1246 l 401 1093 l 454 1093 l 466 1093 l 466 1246 l 621 1246 l 621 1058 b 798 809 729 1008 798 913 b 678 616 798 696 723 616 b 926 334 795 616 926 498 m 554 757 b 446 841 554 810 508 841 l 374 841 l 374 669 l 444 669 b 554 757 507 669 554 701 m 517 264 b 648 368 584 264 648 296 b 519 471 648 432 602 471 l 374 471 l 374 264 l 517 264 "},"¢":{"ha":840,"x_min":0,"x_max":0,"o":"m 795 174 b 597 81 740 130 671 97 l 597 -66 l 371 -66 l 371 88 b 44 505 189 137 44 291 b 371 922 44 720 189 873 l 371 1072 l 597 1072 l 597 929 b 785 844 668 914 732 884 l 660 650 b 513 705 625 682 569 705 b 318 505 402 705 318 618 b 514 307 318 392 402 307 b 659 359 572 307 626 329 l 795 174 "},"¤":{"ha":908,"x_min":0,"x_max":0,"o":"m 784 547 b 733 384 784 487 766 431 l 857 268 l 751 170 l 625 286 b 454 241 576 257 517 241 b 279 289 391 241 330 258 l 152 174 l 47 274 l 174 389 b 128 544 145 434 128 487 b 178 709 128 604 146 661 l 54 825 l 161 925 l 285 808 b 456 852 334 836 393 852 b 628 808 519 852 578 836 l 754 922 l 861 821 l 736 707 b 784 547 766 661 784 606 m 456 449 b 562 548 515 449 562 494 b 450 644 562 608 504 644 b 349 547 393 644 349 602 b 456 449 349 492 397 449 "},"$":{"ha":887,"x_min":0,"x_max":0,"o":"m 849 323 b 574 3 849 160 730 45 l 574 -153 l 347 -153 l 347 -8 b 38 185 204 13 83 85 l 214 357 b 435 250 259 290 344 250 b 557 317 497 250 557 272 b 338 470 557 373 446 422 b 81 785 200 530 81 621 b 347 1094 81 936 196 1053 l 347 1246 l 574 1246 l 574 1099 b 808 923 689 1073 775 1007 l 641 762 b 472 844 608 819 524 844 b 370 777 412 844 370 814 b 565 661 370 726 447 710 b 849 323 736 589 849 484 "},"€":{"ha":1202,"x_min":0,"x_max":0,"o":"m 745 250 b 989 357 836 250 918 294 l 1154 136 b 745 -24 1050 41 911 -24 b 168 396 484 -24 237 138 l 47 396 l 60 526 l 149 526 b 148 547 148 532 148 540 b 149 573 148 555 148 564 l 47 573 l 60 703 l 169 703 b 750 1119 238 947 467 1119 b 1154 954 891 1117 1042 1055 l 987 739 b 751 840 920 800 831 840 b 489 703 642 840 544 786 l 888 703 l 876 573 l 444 573 b 442 545 443 564 442 554 b 443 526 442 538 442 532 l 869 526 l 857 396 l 484 396 b 745 250 538 307 640 250 "},"ƒ":{"ha":926,"x_min":0,"x_max":0,"o":"m 798 854 b 628 679 715 854 669 837 l 848 679 l 848 455 l 581 455 l 565 375 b 174 4 504 87 408 4 l 28 4 l 28 258 l 128 258 b 304 455 212 258 262 268 l 81 455 l 81 679 l 351 679 l 362 735 b 759 1108 424 1031 524 1108 l 898 1108 l 898 854 l 798 854 "},"₣":{"ha":832,"x_min":0,"x_max":0,"o":"m 382 823 l 382 646 l 729 646 l 729 404 l 382 404 l 382 319 l 621 319 l 621 136 l 382 136 l 382 -1 l 95 -1 l 95 136 l 7 136 l 7 319 l 95 319 l 95 1096 l 804 1096 l 804 823 "},"₭":{"ha":1023,"x_min":0,"x_max":0,"o":"m 661 0 l 385 416 l 385 0 l 95 0 l 95 435 l 7 435 l 7 659 l 95 659 l 95 1093 l 385 1093 l 385 686 l 638 1093 l 972 1093 l 699 659 l 937 659 l 937 435 l 721 435 l 1013 0 "},"₤":{"ha":865,"x_min":0,"x_max":0,"o":"m 817 245 l 817 0 l 47 0 l 47 245 l 128 245 b 163 366 149 286 160 325 l 52 366 l 52 501 l 144 501 b 130 552 140 518 134 534 l 52 552 l 52 688 l 105 688 l 105 701 b 514 1104 104 924 272 1104 b 809 951 627 1104 745 1050 l 641 810 b 552 858 623 842 591 858 b 397 688 446 858 399 768 l 611 688 l 611 552 l 418 552 b 433 501 422 535 428 518 l 611 501 l 611 366 l 452 366 b 420 245 451 322 441 284 "},"₦":{"ha":1175,"x_min":0,"x_max":0,"o":"m 1168 435 l 1060 435 l 1060 -11 l 968 -11 l 406 534 l 406 -1 l 115 -1 l 115 435 l 7 435 l 7 659 l 115 659 l 115 1104 l 209 1104 l 769 562 l 769 1095 l 1060 1095 l 1060 659 l 1168 659 "},"₱":{"ha":1121,"x_min":0,"x_max":0,"o":"m 1093 724 l 979 724 l 979 710 b 978 690 979 703 979 697 l 1093 690 l 1093 514 l 922 514 b 566 322 850 400 718 322 l 443 322 l 443 0 l 153 0 l 153 514 l 28 514 l 28 690 l 153 690 l 153 724 l 28 724 l 28 901 l 153 901 l 153 1093 l 566 1093 b 924 901 718 1093 852 1016 l 1093 901 m 566 589 b 699 709 644 589 699 642 b 566 825 699 775 643 825 l 443 825 l 443 590 l 566 589 "},"₽":{"ha":1061,"x_min":0,"x_max":0,"o":"m 477 370 l 477 302 l 753 302 l 753 119 l 477 119 l 477 0 l 187 0 l 187 119 l 47 119 l 47 302 l 187 302 l 187 376 l 47 376 l 47 583 l 187 583 l 187 1093 l 613 1093 b 1013 734 836 1093 1013 937 b 603 370 1013 523 829 370 m 477 624 l 600 623 b 733 726 688 623 733 665 b 600 825 733 775 688 825 l 477 825 "},"₨":{"ha":960,"x_min":0,"x_max":0,"o":"m 767 879 b 797 799 780 854 790 827 l 909 799 l 882 643 l 801 643 b 584 380 776 498 673 399 b 524 375 569 376 543 374 l 873 -1 l 533 -1 l 109 499 l 109 544 l 369 543 b 508 643 433 543 486 584 l 98 643 l 125 799 l 496 799 b 369 879 469 846 422 879 l 95 879 l 132 1093 l 916 1093 l 878 879 l 767 879 "},"£":{"ha":861,"x_min":0,"x_max":0,"o":"m 814 245 l 814 0 l 47 0 l 47 245 l 125 245 b 160 389 150 294 160 339 b 157 426 160 401 159 414 l 52 426 l 52 606 l 113 606 b 102 701 106 635 102 667 b 511 1104 101 924 269 1104 b 806 951 624 1104 741 1050 l 637 810 b 549 858 620 842 588 858 b 393 683 440 858 393 765 b 401 606 393 656 396 631 l 611 606 l 611 426 l 446 426 b 450 383 448 412 450 397 b 416 245 450 332 440 289 "},"₸":{"ha":872,"x_min":0,"x_max":0,"o":"m 844 1093 l 844 855 l 28 855 l 28 1093 m 844 553 l 579 553 l 582 0 l 291 0 l 288 553 l 28 553 l 28 791 l 844 791 "},"₮":{"ha":872,"x_min":0,"x_max":0,"o":"m 582 822 l 582 711 l 731 781 l 731 616 l 582 547 l 582 481 l 731 551 l 731 385 l 582 315 l 582 0 l 291 0 l 291 180 l 142 111 l 142 275 l 291 345 l 291 411 l 142 342 l 142 507 l 291 576 l 291 822 l 28 822 l 28 1093 l 844 1093 l 844 822 "},"₩":{"ha":1434,"x_min":0,"x_max":0,"o":"m 1269 659 l 1413 659 l 1413 435 l 1195 435 l 1048 -7 l 968 -7 l 713 534 l 459 -7 l 380 -7 l 233 435 l 20 435 l 20 659 l 159 659 l 14 1093 l 328 1093 l 479 593 l 703 1091 l 725 1091 l 949 594 l 1099 1093 l 1413 1093 "},"¥":{"ha":1058,"x_min":0,"x_max":0,"o":"m 765 642 l 983 642 l 983 450 l 673 450 l 673 382 l 983 382 l 983 190 l 673 190 l 673 0 l 385 0 l 385 190 l 87 190 l 87 382 l 385 382 l 385 450 l 87 450 l 87 642 l 292 642 l 47 1093 l 376 1093 l 529 777 l 681 1093 l 1010 1093 "},"+":{"ha":911,"x_min":0,"x_max":0,"o":"m 816 418 l 591 418 l 591 169 l 321 169 l 321 418 l 95 418 l 95 662 l 321 662 l 321 910 l 591 910 l 591 662 l 816 662 "},"−":{"ha":903,"x_min":0,"x_max":0,"o":"m 95 662 l 808 662 l 808 418 l 95 418 "},"×":{"ha":1005,"x_min":0,"x_max":0,"o":"m 745 136 l 503 368 l 261 135 l 96 303 l 332 532 l 95 760 l 260 929 l 503 696 l 744 930 l 909 760 l 673 532 l 910 305 "},"÷":{"ha":1122,"x_min":0,"x_max":0,"o":"m 549 722 b 372 888 453 721 372 797 b 548 1054 372 979 454 1054 b 726 888 644 1054 726 976 b 549 722 726 799 646 722 m 95 635 l 1027 635 l 1027 409 l 95 409 m 549 -19 b 372 149 454 -19 372 57 b 549 314 372 241 456 314 b 726 148 644 314 726 237 b 549 -19 726 60 646 -19 "},"=":{"ha":918,"x_min":0,"x_max":0,"o":"m 95 831 l 823 831 l 823 605 l 95 605 m 95 460 l 823 460 l 823 235 l 95 235 "},"≠":{"ha":918,"x_min":0,"x_max":0,"o":"m 579 603 l 530 458 l 823 458 l 823 233 l 452 233 l 380 22 l 214 22 l 286 233 l 95 233 l 95 458 l 363 458 l 413 603 l 95 603 l 95 829 l 490 829 l 567 1053 l 733 1053 l 656 829 l 823 829 l 823 603 "},">":{"ha":901,"x_min":0,"x_max":0,"o":"m 105 392 l 391 549 l 105 707 l 96 990 l 806 555 l 806 542 l 105 108 "},"<":{"ha":901,"x_min":0,"x_max":0,"o":"m 95 542 l 95 555 l 806 990 l 796 707 l 510 549 l 796 392 l 796 108 "},"≥":{"ha":917,"x_min":0,"x_max":0,"o":"m 104 578 l 391 703 l 104 829 l 95 1057 l 806 709 l 806 698 l 104 351 m 106 58 l 106 241 l 822 241 l 822 58 "},"≤":{"ha":917,"x_min":0,"x_max":0,"o":"m 112 698 l 112 709 l 822 1057 l 812 829 l 526 703 l 812 578 l 812 351 m 95 241 l 811 241 l 811 58 l 95 58 "},"±":{"ha":840,"x_min":0,"x_max":0,"o":"m 745 795 l 745 576 l 555 576 l 555 376 l 285 376 l 285 576 l 95 576 l 95 795 l 285 795 l 285 975 l 555 975 l 555 795 m 95 302 l 745 302 l 745 100 l 95 100 "},"≈":{"ha":982,"x_min":0,"x_max":0,"o":"m 96 629 b 353 865 132 812 252 865 b 629 751 500 865 551 751 b 715 861 677 751 701 800 l 887 808 b 629 571 849 618 725 571 b 354 686 481 571 433 686 b 267 576 304 686 281 637 m 95 252 b 352 488 132 435 252 488 b 628 374 500 488 551 374 b 715 484 677 374 701 422 l 886 431 b 629 195 848 242 724 195 b 354 309 481 195 433 309 b 267 199 304 309 281 260 "},"~":{"ha":1164,"x_min":0,"x_max":0,"o":"m 95 435 b 411 726 140 661 288 726 b 751 585 593 726 655 585 b 859 720 811 585 840 646 l 1069 655 b 752 364 1022 422 869 364 b 414 505 570 364 510 505 b 306 370 351 505 324 445 "},"¬":{"ha":1056,"x_min":0,"x_max":0,"o":"m 961 732 l 961 262 l 689 262 l 689 475 l 95 475 l 95 732 "},"^":{"ha":690,"x_min":0,"x_max":0,"o":"m 324 1137 l 366 1137 l 676 741 l 444 741 l 345 885 l 245 741 l 14 741 "},"∅":{"ha":1080,"x_min":0,"x_max":0,"o":"m 860 858 b 1022 525 959 776 1022 657 b 542 77 1022 278 806 77 b 354 113 475 77 412 90 l 273 -7 l 61 -7 l 205 206 b 63 522 118 287 63 399 b 542 970 63 768 279 970 b 706 943 600 970 654 960 l 804 1087 l 1015 1087 l 860 858 m 265 522 b 319 373 265 467 286 415 l 589 771 b 542 775 574 774 558 775 b 265 522 389 775 265 661 m 542 271 b 817 522 693 271 817 384 b 747 690 817 587 790 646 l 468 280 b 542 271 491 274 516 271 "},"∞":{"ha":1722,"x_min":0,"x_max":0,"o":"m 1260 958 b 1674 549 1487 958 1674 778 b 1260 141 1674 320 1487 141 b 861 331 1103 141 960 215 b 461 141 762 215 618 141 b 47 549 235 141 47 320 b 461 958 47 778 235 958 b 861 768 618 958 762 883 b 1260 958 960 883 1104 958 m 464 372 b 743 549 578 372 675 456 b 464 726 675 644 577 726 b 290 549 373 726 290 647 b 464 372 290 451 376 372 m 1258 372 b 1432 549 1346 372 1432 451 b 1258 726 1432 647 1349 726 b 979 549 1143 726 1046 643 b 1258 372 1046 456 1144 372 "},"∫":{"ha":838,"x_min":0,"x_max":0,"o":"m 28 31 l 94 31 b 236 146 176 31 227 85 l 372 1053 b 691 1289 396 1213 508 1289 l 810 1289 l 810 1055 l 744 1055 b 604 939 663 1055 613 1001 l 467 33 b 147 -203 444 -127 331 -203 l 28 -203 "},"∏":{"ha":1054,"x_min":0,"x_max":0,"o":"m 1025 1080 l 887 1080 l 887 -170 l 617 -170 l 617 1080 l 446 1080 l 446 -170 l 176 -170 l 176 1080 l 28 1080 l 28 1322 l 1025 1322 "},"∑":{"ha":1066,"x_min":0,"x_max":0,"o":"m 1000 1063 l 466 1063 l 777 561 l 777 559 l 466 56 l 999 55 l 999 -186 l 14 -186 l 14 -172 l 470 560 l 14 1291 l 14 1305 l 1000 1305 "},"√":{"ha":825,"x_min":0,"x_max":0,"o":"m 1164 1252 l 876 1252 l 390 -51 l 374 -51 l 14 888 l 274 888 l 379 560 l 712 1494 l 1164 1494 "},"µ":{"ha":993,"x_min":0,"x_max":0,"o":"m 905 814 l 905 374 b 602 -25 905 49 754 -25 b 362 62 505 -25 423 7 l 362 -305 l 88 -305 l 88 814 l 362 814 l 362 374 b 501 220 362 283 412 220 b 631 374 584 220 631 264 l 631 814 "},"∂":{"ha":935,"x_min":0,"x_max":0,"o":"m 448 -27 b 44 350 199 -27 44 142 b 404 722 44 564 202 722 b 646 595 511 722 606 678 b 312 950 620 764 505 871 l 526 1103 b 890 471 710 1036 890 812 b 448 -27 890 163 711 -27 m 467 208 b 614 351 553 208 614 271 b 466 498 614 433 551 498 b 315 353 384 498 315 437 b 467 208 315 270 382 208 "},"%":{"ha":1280,"x_min":0,"x_max":0,"o":"m 323 595 b 47 850 172 595 47 709 b 323 1106 47 991 172 1106 b 598 850 474 1106 598 991 b 323 595 598 710 473 595 m 894 1094 l 1129 1094 l 379 0 l 143 0 m 323 764 b 417 850 375 764 417 802 b 322 936 417 897 374 936 b 227 850 269 936 227 897 b 323 764 227 802 269 764 m 958 -14 b 682 242 807 -14 682 102 b 958 498 682 383 807 498 b 1233 243 1109 498 1233 383 b 958 -14 1233 102 1108 -14 m 958 156 b 1052 242 1010 156 1052 195 b 957 328 1052 289 1009 328 b 861 242 904 328 861 289 b 958 156 861 195 904 156 "},"‰":{"ha":1866,"x_min":0,"x_max":0,"o":"m 323 595 b 47 850 172 595 47 709 b 323 1106 47 991 172 1106 b 598 850 474 1106 598 991 b 323 595 598 710 473 595 m 894 1094 l 1129 1094 l 379 0 l 143 0 m 323 764 b 417 850 375 764 417 802 b 322 936 417 897 374 936 b 227 850 269 936 227 897 b 323 764 227 802 269 764 m 958 -14 b 682 242 807 -14 682 102 b 958 498 682 383 807 498 b 1233 243 1109 498 1233 383 b 958 -14 1233 102 1108 -14 m 1543 -14 b 1268 242 1393 -14 1268 102 b 1544 498 1268 383 1393 498 b 1818 243 1694 498 1818 383 b 1543 -14 1818 102 1693 -14 m 958 156 b 1052 242 1010 156 1052 195 b 957 328 1052 289 1009 328 b 861 242 904 328 861 289 b 958 156 861 195 904 156 m 1543 156 b 1637 242 1595 156 1637 195 b 1543 328 1637 289 1595 328 b 1447 242 1490 328 1447 289 b 1543 156 1447 195 1490 156 "},"↑":{"ha":1457,"x_min":0,"x_max":0,"o":"m 1038 549 l 852 738 l 852 -85 l 605 -85 l 605 739 l 418 549 l 288 680 l 728 1134 l 1169 680 "},"↗":{"ha":1457,"x_min":0,"x_max":0,"o":"m 1203 962 l 1194 330 l 1008 330 l 1010 595 l 429 13 l 254 188 l 836 770 l 570 768 l 570 952 "},"→":{"ha":1457,"x_min":0,"x_max":0,"o":"m 1338 524 l 884 84 l 753 214 l 943 401 l 119 401 l 119 648 l 942 648 l 753 834 l 884 965 "},"↘":{"ha":1457,"x_min":0,"x_max":0,"o":"m 570 270 l 836 268 l 254 850 l 429 1025 l 1010 443 l 1008 708 l 1193 708 l 1203 75 l 570 85 "},"↓":{"ha":1457,"x_min":0,"x_max":0,"o":"m 1169 370 l 728 -85 l 288 370 l 418 500 l 605 311 l 605 1134 l 852 1134 l 852 311 l 1038 500 "},"↙":{"ha":1457,"x_min":0,"x_max":0,"o":"m 638 286 l 903 288 l 903 103 l 271 93 l 280 726 l 465 726 l 463 461 l 1045 1043 l 1220 868 "},"←":{"ha":1457,"x_min":0,"x_max":0,"o":"m 1338 401 l 515 401 l 704 214 l 574 84 l 119 524 l 574 965 l 704 834 l 515 648 l 1338 648 "},"↖":{"ha":1457,"x_min":0,"x_max":0,"o":"m 1045 5 l 463 588 l 465 322 l 280 322 l 270 956 l 903 945 l 903 761 l 637 763 l 1220 181 "},"↔":{"ha":1457,"x_min":0,"x_max":0,"o":"m 1413 524 l 958 84 l 827 214 l 1017 401 l 440 401 l 629 214 l 499 84 l 44 524 l 499 965 l 629 834 l 440 648 l 1017 648 l 827 834 l 958 965 "},"↕":{"ha":1457,"x_min":0,"x_max":0,"o":"m 728 -160 l 288 295 l 418 425 l 605 236 l 605 812 l 418 623 l 288 754 l 728 1208 l 1169 754 l 1038 623 l 852 812 l 852 236 l 1038 425 l 1169 295 "},"◊":{"ha":884,"x_min":0,"x_max":0,"o":"m 748 528 l 440 5 l 136 528 l 440 1052 m 561 528 l 440 739 l 322 528 l 440 318 "},"@":{"ha":1639,"x_min":0,"x_max":0,"o":"m 729 -296 b 47 319 281 -296 47 -31 b 921 1135 47 789 434 1135 b 1592 537 1373 1135 1592 844 b 1108 -23 1592 249 1384 -23 b 888 223 954 -23 890 81 b 702 114 877 158 786 114 b 494 359 579 114 494 211 b 776 709 494 539 608 710 b 924 602 859 709 924 663 l 962 703 l 1150 703 l 1100 289 b 1098 257 1099 280 1098 270 b 1156 174 1098 217 1109 174 b 1304 496 1255 174 1304 361 b 876 877 1304 760 1124 878 b 322 349 565 876 322 653 b 755 -50 322 111 487 -50 b 883 -26 809 -50 840 -43 l 954 -253 b 729 -296 897 -275 844 -296 m 796 307 b 897 430 854 307 897 366 b 823 515 897 477 871 515 b 717 394 763 515 717 454 b 796 307 717 346 748 307 "},"&":{"ha":1107,"x_min":0,"x_max":0,"o":"m 1078 -14 b 777 83 992 -14 886 23 b 463 -24 694 13 588 -24 b 47 326 193 -24 47 154 b 214 619 47 450 123 561 b 157 815 178 688 157 755 b 507 1125 157 977 308 1125 b 840 859 669 1125 811 1024 l 590 795 b 494 895 585 862 535 895 b 410 804 454 895 410 864 b 686 438 410 700 536 555 b 706 576 697 482 703 529 l 973 580 b 919 289 970 469 951 372 b 1079 239 981 259 1037 241 m 446 216 b 546 239 484 216 517 224 b 342 435 472 299 402 366 b 292 336 311 408 292 373 b 446 216 292 266 351 216 "},"¶":{"ha":1124,"x_min":0,"x_max":0,"o":"m 136 784 b 498 1119 136 975 292 1119 l 694 1119 l 694 -69 l 494 -69 l 494 449 b 136 784 290 450 136 595 m 988 1119 l 988 -75 l 793 -75 l 793 1119 "},"§":{"ha":949,"x_min":0,"x_max":0,"o":"m 743 373 b 810 218 787 333 810 285 b 463 -60 810 51 662 -60 b 136 93 311 -60 180 6 l 256 257 b 485 164 294 210 390 164 b 556 198 524 164 556 172 b 400 294 556 234 481 260 b 163 556 285 341 163 414 b 237 721 163 623 191 679 b 165 882 195 761 165 812 b 495 1138 165 1044 325 1138 b 787 1007 614 1138 743 1088 l 648 855 b 482 916 612 891 538 916 b 417 880 441 916 417 907 b 585 796 417 854 484 838 b 813 544 730 736 813 666 b 743 373 813 478 789 420 m 384 566 b 562 471 384 533 472 507 b 599 514 587 479 599 493 b 433 614 599 551 508 585 b 384 566 401 607 384 591 "},"©":{"ha":1249,"x_min":0,"x_max":0,"o":"m 625 -61 b 47 490 302 -61 47 183 b 625 1040 47 796 301 1040 b 1202 490 949 1040 1202 791 b 625 -61 1202 180 941 -61 m 625 68 b 1067 490 868 68 1067 259 b 625 911 1067 721 867 911 b 182 489 382 911 182 721 b 625 68 182 258 384 68 m 640 168 b 293 494 439 168 293 320 b 640 820 293 666 440 820 b 850 749 722 820 792 793 l 735 585 b 639 625 707 611 677 625 b 498 494 554 625 498 559 b 640 362 498 429 554 362 b 734 401 677 362 706 376 l 858 245 b 640 168 799 196 726 168 "},"®":{"ha":765,"x_min":0,"x_max":0,"o":"m 382 1093 b 711 789 567 1093 711 956 b 382 483 711 616 563 483 b 54 789 199 483 54 618 b 382 1093 54 958 199 1093 m 382 560 b 629 788 517 560 629 663 b 382 1017 629 913 517 1017 b 136 788 248 1017 136 913 b 382 560 136 663 249 560 m 505 848 b 450 763 505 809 481 776 l 536 644 l 441 644 l 357 768 l 357 644 l 275 644 l 275 948 l 391 948 b 505 848 457 948 505 903 m 356 813 l 389 812 b 422 844 407 812 422 825 b 389 875 422 863 407 875 l 356 875 "},"™":{"ha":925,"x_min":0,"x_max":0,"o":"m 903 1097 l 903 629 l 779 629 l 779 812 l 654 637 l 654 637 l 528 813 l 528 629 l 406 629 l 406 1097 l 455 1097 l 654 825 l 853 1097 m 35 1093 l 380 1093 l 380 978 l 269 978 l 269 629 l 146 629 l 146 978 l 35 978 "},"°":{"ha":500,"x_min":0,"x_max":0,"o":"m 250 735 b 44 926 139 735 44 823 b 250 1118 44 1029 138 1118 b 456 926 361 1118 456 1031 b 250 735 456 821 361 735 m 250 853 b 332 927 294 853 332 886 b 250 1002 332 967 294 1002 b 168 926 208 1002 168 968 b 250 853 168 887 203 853 "},"|":{"ha":441,"x_min":0,"x_max":0,"o":"m 136 1255 l 306 1255 l 306 -305 l 136 -305 "},"¦":{"ha":441,"x_min":0,"x_max":0,"o":"m 136 1255 l 306 1255 l 306 587 l 136 587 m 136 373 l 306 373 l 306 -305 l 136 -305 "},"†":{"ha":496,"x_min":0,"x_max":0,"o":"m 481 833 l 328 833 l 328 0 l 169 0 l 169 833 l 14 833 l 14 967 l 169 967 l 169 1119 l 328 1119 l 328 967 l 481 967 "},"‡":{"ha":497,"x_min":0,"x_max":0,"o":"m 329 833 l 329 283 l 481 283 l 481 149 l 329 149 l 329 0 l 170 0 l 170 149 l 14 149 l 14 283 l 170 283 l 170 833 l 16 833 l 16 967 l 170 967 l 170 1119 l 329 1119 l 329 967 l 483 967 l 483 833 "},"℮":{"ha":1317,"x_min":0,"x_max":0,"o":"m 679 -22 b 47 544 350 -22 47 222 b 683 1109 47 859 340 1109 b 1270 591 1016 1109 1270 874 b 1264 505 1270 562 1267 524 l 250 505 l 250 236 b 677 59 372 112 533 59 b 1130 284 894 59 1079 176 l 1214 284 b 679 -22 1151 142 948 -22 m 1081 581 l 1081 868 b 683 1029 980 969 848 1029 b 250 854 517 1029 366 968 l 250 581 "},"ʼ":{"ha":323,"x_min":0,"x_max":0,"o":"m 65 1119 l 309 1119 l 218 743 l 14 743 "},"̈":{"ha":0,"x_min":0,"x_max":0,"o":"m -399 915 b -500 1008 -454 915 -500 957 b -399 1102 -500 1058 -454 1102 b -300 1008 -346 1102 -300 1058 b -399 915 -300 957 -346 915 m -73 915 b -172 1008 -127 915 -172 957 b -73 1102 -172 1058 -127 1102 b 28 1008 -18 1102 28 1058 b -73 915 28 957 -18 915 "},"̇":{"ha":0,"x_min":0,"x_max":0,"o":"m -224 913 b -338 1020 -288 913 -338 962 b -224 1129 -338 1078 -287 1129 b -109 1021 -161 1129 -109 1078 b -224 913 -109 961 -161 913 "},"̀":{"ha":0,"x_min":0,"x_max":0,"o":"m -344 1133 l -117 1133 l 0 904 l -182 904 "},"́":{"ha":0,"x_min":0,"x_max":0,"o":"m -344 904 l -227 1133 l 0 1133 l -161 904 "},"̋":{"ha":0,"x_min":0,"x_max":0,"o":"m -496 1133 l -293 1133 l -426 904 l -589 904 m -186 1133 l 41 1133 l -155 904 l -328 904 "},"̂":{"ha":0,"x_min":0,"x_max":0,"o":"m -338 1112 l -176 1112 l 37 913 l -171 913 l -257 1002 l -343 913 l -549 913 "},"̌":{"ha":0,"x_min":0,"x_max":0,"o":"m -343 1112 l -257 1024 l -171 1112 l 37 1112 l -176 913 l -338 913 l -549 1112 "},"̆":{"ha":0,"x_min":0,"x_max":0,"o":"m -233 909 b -451 1114 -357 909 -451 998 l -321 1114 b -233 1023 -321 1062 -283 1023 b -144 1114 -182 1023 -144 1062 l -14 1114 b -233 909 -14 998 -108 909 "},"̊":{"ha":0,"x_min":0,"x_max":0,"o":"m -172 878 b -336 1037 -262 878 -336 949 b -172 1196 -336 1124 -262 1196 b -8 1037 -83 1196 -8 1123 b -172 878 -8 951 -83 878 m -172 978 b -111 1036 -138 978 -111 1004 b -172 1095 -111 1068 -138 1095 b -233 1036 -205 1095 -233 1068 b -172 978 -233 1004 -205 978 "},"̃":{"ha":0,"x_min":0,"x_max":0,"o":"m -612 961 b -414 1143 -584 1103 -492 1143 b -202 1055 -301 1143 -262 1055 b -135 1139 -165 1055 -146 1093 l -3 1099 b -201 917 -33 954 -128 917 b -413 1005 -315 917 -353 1005 b -480 920 -452 1005 -469 967 "},"̄":{"ha":0,"x_min":0,"x_max":0,"o":"m -448 1078 l -3 1078 l -3 942 l -448 942 "},"̒":{"ha":0,"x_min":0,"x_max":0,"o":"m -208 1229 b -135 1198 -165 1229 -135 1208 b -231 1120 -168 1198 -231 1177 b -222 1089 -231 1103 -227 1095 b -130 998 -178 1089 -130 1050 b -256 890 -130 941 -182 890 b -381 1031 -330 890 -381 946 b -208 1229 -381 1128 -315 1229 "},"̦":{"ha":0,"x_min":0,"x_max":0,"o":"m -307 -419 b -380 -388 -351 -419 -380 -399 b -285 -311 -347 -388 -285 -367 b -293 -279 -285 -294 -288 -286 b -385 -189 -337 -279 -385 -241 b -259 -81 -385 -132 -332 -81 b -134 -221 -184 -81 -134 -136 b -307 -419 -134 -318 -200 -419 "},"̧":{"ha":0,"x_min":0,"x_max":0,"o":"m -416 -233 b -235 -180 -284 -233 -235 -210 b -278 -149 -235 -169 -242 -149 b -311 -154 -287 -149 -298 -151 l -343 -113 l -229 28 l -100 28 l -174 -59 b -157 -58 -168 -59 -163 -58 b -49 -174 -96 -58 -49 -109 b -349 -389 -49 -286 -185 -391 "},"̨":{"ha":0,"x_min":0,"x_max":0,"o":"m -73 -372 b -203 -387 -121 -382 -164 -387 b -421 -218 -345 -387 -421 -323 b -216 23 -421 -101 -328 -7 l -85 0 b -219 -157 -179 -69 -219 -111 b -180 -201 -219 -180 -208 -201 b -99 -189 -165 -201 -134 -197 l -73 -372 "},"̵":{"ha":0,"x_min":0,"x_max":0,"o":"m -604 582 l -10 582 l -10 426 l -604 426 "},"̶":{"ha":0,"x_min":0,"x_max":0,"o":"m -781 582 l 289 582 l 289 426 l -781 426 "},"̷":{"ha":0,"x_min":0,"x_max":0,"o":"m -484 814 l 32 1161 l 32 950 l -484 604 "},"̸":{"ha":0,"x_min":0,"x_max":0,"o":"m -176 877 l 9 877 l -642 -76 l -829 -76 "},"¨":{"ha":466,"x_min":0,"x_max":0,"o":"m 66 915 b -34 1008 12 915 -34 957 b 66 1102 -34 1058 12 1102 b 165 1008 120 1102 165 1058 b 66 915 165 957 120 915 m 393 915 b 294 1008 338 915 294 957 b 393 1102 294 1058 339 1102 b 493 1008 448 1102 493 1058 b 393 915 493 957 448 915 "},"˙":{"ha":448,"x_min":0,"x_max":0,"o":"m 224 913 b 110 1020 161 913 110 962 b 224 1129 110 1078 161 1129 b 340 1021 288 1129 340 1078 b 224 913 340 961 287 913 "},"`":{"ha":457,"x_min":0,"x_max":0,"o":"m 0 1133 l 227 1133 l 344 904 l 161 904 "},"´":{"ha":534,"x_min":0,"x_max":0,"o":"m -10 904 l 106 1133 l 334 1133 l 172 904 "},"˝":{"ha":462,"x_min":0,"x_max":0,"o":"m 83 1133 l 286 1133 l 153 904 l -10 904 m 392 1133 l 619 1133 l 423 904 l 251 904 "},"ˆ":{"ha":456,"x_min":0,"x_max":0,"o":"m 174 1112 l 336 1112 l 550 913 l 342 913 l 256 1002 l 170 913 l -37 913 "},"ˇ":{"ha":456,"x_min":0,"x_max":0,"o":"m 169 1112 l 255 1024 l 341 1112 l 549 1112 l 336 913 l 174 913 l -37 1112 "},"˘":{"ha":458,"x_min":0,"x_max":0,"o":"m 232 909 b 14 1114 107 909 14 998 l 144 1114 b 232 1023 144 1062 182 1023 b 321 1114 282 1023 321 1062 l 451 1114 b 232 909 451 998 357 909 "},"˚":{"ha":439,"x_min":0,"x_max":0,"o":"m 173 878 b 8 1037 83 878 8 949 b 173 1196 8 1124 83 1196 b 336 1037 262 1196 336 1123 b 173 878 336 951 262 878 m 173 978 b 233 1036 206 978 233 1004 b 173 1095 233 1068 206 1095 b 112 1036 139 1095 112 1068 b 173 978 112 1004 139 978 "},"˜":{"ha":561,"x_min":0,"x_max":0,"o":"m 3 961 b 201 1143 32 1103 124 1143 b 414 1055 315 1143 354 1055 b 481 1139 451 1055 469 1093 l 612 1099 b 414 917 583 954 488 917 b 203 1005 300 917 263 1005 b 136 920 164 1005 146 967 "},"¯":{"ha":437,"x_min":0,"x_max":0,"o":"m 3 1078 l 448 1078 l 448 942 l 3 942 "},"¸":{"ha":407,"x_min":0,"x_max":0,"o":"m 28 -233 b 209 -180 160 -233 209 -210 b 166 -149 209 -169 202 -149 b 133 -154 157 -149 146 -151 l 101 -113 l 215 28 l 344 28 l 271 -59 b 287 -58 277 -59 281 -58 b 395 -174 348 -58 395 -109 b 96 -389 395 -286 259 -391 "},"˛":{"ha":451,"x_min":0,"x_max":0,"o":"m 378 -372 b 248 -387 330 -382 287 -387 b 30 -218 106 -387 30 -323 b 235 23 30 -101 123 -7 l 366 0 b 232 -157 272 -69 232 -111 b 271 -201 232 -180 243 -201 b 352 -189 286 -201 317 -197 l 378 -372 "}}}
